M48
;DRILL file {KiCad no-vcs-found-fea9d12~61~ubuntu16.04.1} date Fri Nov 24 00:25:41 2017
;FORMAT={-:-/ absolute / inch / decimal}
FMAT,2
INCH,TZ
T1C0.016
%
G90
G05
M72
T1
X4.8514Y-3.2096
X4.9301Y-3.1585
X5.3228Y-3.0697
X5.3415Y-3.3583
X5.3524Y-3.0228
X5.388Y-3.2206
X5.4008Y-3.0697
X5.4291Y-3.0228
X5.4803Y-3.3189
X5.5079Y-3.4478
X5.5397Y-2.9265
X5.565Y-3.2889
X5.5896Y-3.4892
X5.6555Y-3.5059
X5.7114Y-3.0303
X5.7402Y-3.0827
X5.7856Y-3.0293
X5.7884Y-3.7333
X5.7913Y-3.2628
X5.7913Y-3.7805
X5.7935Y-3.6368
X5.7935Y-3.6909
X5.8323Y-2.9545
X5.8801Y-3.1281
X5.889Y-3.0811
X5.8937Y-3.0303
X5.8972Y-3.1636
X5.9044Y-3.2029
X5.96Y-3.1412
X5.9793Y-3.6467
X5.98Y-3.08
X5.9803Y-3.6949
X5.9843Y-3.7421
X5.9911Y-3.7913
X6.01Y-3.05
X6.0113Y-3.0028
X6.031Y-2.9551
X6.0507Y-2.9154
X6.0707Y-2.9889
X6.0961Y-4.2689
X6.0984Y-4.226
X6.1004Y-4.1323
X6.1004Y-4.1831
X6.1292Y-3.2279
X6.1361Y-3.1834
X6.1754Y-3.1817
X6.1913Y-3.0949
X6.2067Y-3.1362
X6.21Y-3.06
X6.4232Y-3.263
X6.4551Y-3.2217
X6.4685Y-3.1819
X6.4996Y-3.1406
X6.5382Y-3.1043
X6.59Y-3.11
T0
M30
