%TF.GenerationSoftware,KiCad,Pcbnew,no-vcs-found-fea9d12~61~ubuntu16.04.1*%
%TF.CreationDate,2017-11-24T00:26:11+01:00*%
%TF.ProjectId,TFT_LCD_4_3_AM480272H2T_V1_0,5446545F4C43445F345F335F414D3438,V1_0*%
%TF.SameCoordinates,Original*%
%TF.FileFunction,Legend,Top*%
%TF.FilePolarity,Positive*%
%FSLAX46Y46*%
G04 Gerber Fmt 4.6, Leading zero omitted, Abs format (unit mm)*
G04 Created by KiCad (PCBNEW no-vcs-found-fea9d12~61~ubuntu16.04.1) date Fri Nov 24 00:26:11 2017*
%MOMM*%
%LPD*%
G01*
G04 APERTURE LIST*
%ADD10C,0.150000*%
%ADD11C,0.127000*%
%ADD12C,0.305000*%
%ADD13C,0.254000*%
%ADD14C,0.250000*%
G04 APERTURE END LIST*
D10*
X131450000Y-47210000D02*
G75*
G03X131450000Y-47210000I-2000000J0D01*
G01*
X177900000Y-112940000D02*
G75*
G03X177900000Y-112940000I-2000000J0D01*
G01*
X173930000Y-46990000D02*
G75*
G03X173930000Y-46990000I-2000000J0D01*
G01*
X116960000Y-143450000D02*
X184460000Y-143450000D01*
X116960000Y-37750000D02*
X116960000Y-143450000D01*
X184460000Y-37750000D02*
X184460000Y-143450000D01*
X116960000Y-37750000D02*
X184460000Y-37750000D01*
%TO.C,P2*%
X160460000Y-101250000D02*
X160460000Y-101550000D01*
X157710000Y-123750000D02*
X157510000Y-123750000D01*
X157760000Y-104150000D02*
X157460000Y-104150000D01*
X157460000Y-101250000D02*
X157660000Y-101250000D01*
X157460000Y-126650000D02*
X157460000Y-101250000D01*
X157510000Y-126650000D02*
X157460000Y-126650000D01*
X157660000Y-126650000D02*
X157510000Y-126650000D01*
X160460000Y-126350000D02*
X160460000Y-126650000D01*
X157610000Y-104150000D02*
X157610000Y-123750000D01*
X158160000Y-123750000D02*
X158160000Y-104150000D01*
X158260000Y-104150000D02*
X158260000Y-123750000D01*
X159160000Y-123750000D02*
X158360000Y-123750000D01*
X159160000Y-104150000D02*
X159160000Y-123750000D01*
X158360000Y-104150000D02*
X159160000Y-104150000D01*
X158360000Y-123750000D02*
X158360000Y-104150000D01*
X158360000Y-123750000D02*
X157660000Y-123750000D01*
X157660000Y-126650000D02*
X160460000Y-126650000D01*
X157660000Y-104150000D02*
X158360000Y-104150000D01*
X160460000Y-101250000D02*
X157660000Y-101250000D01*
X160460000Y-124050000D02*
X160460000Y-126350000D01*
X160860000Y-124050000D02*
X160460000Y-124050000D01*
X160860000Y-123950000D02*
X160860000Y-124050000D01*
X160860000Y-103850000D02*
X160860000Y-103950000D01*
X160460000Y-103850000D02*
X160860000Y-103850000D01*
X160460000Y-101550000D02*
X160460000Y-103850000D01*
%TO.C,P1*%
X165510000Y-67700000D02*
X136010000Y-67700000D01*
X135910000Y-67600000D02*
X165510000Y-67600000D01*
X165510000Y-67500000D02*
X135910000Y-67500000D01*
X135910000Y-67400000D02*
X165510000Y-67400000D01*
X165510000Y-72500000D02*
X163210000Y-72500000D01*
X135910000Y-72500000D02*
X138210000Y-72500000D01*
X165510000Y-63400000D02*
X165410000Y-63400000D01*
X165510000Y-63400000D02*
X165510000Y-72100000D01*
X165510000Y-72100000D02*
X165510000Y-72500000D01*
X135910000Y-63400000D02*
X165410000Y-63400000D01*
X135910000Y-72500000D02*
X135910000Y-63400000D01*
X135920000Y-71800000D02*
X165500000Y-71800000D01*
X165500000Y-71900000D02*
X135920000Y-71900000D01*
X135920000Y-72000000D02*
X165500000Y-72000000D01*
X165500000Y-72100000D02*
X135920000Y-72100000D01*
X165500000Y-63950000D02*
X135920000Y-63900000D01*
X165500000Y-63700000D02*
X135920000Y-63700000D01*
X135920000Y-63800000D02*
X165500000Y-63900000D01*
X165500000Y-64050000D02*
X135920000Y-64050000D01*
X135920000Y-63550000D02*
X165500000Y-63500000D01*
X165500000Y-63900000D02*
X135920000Y-63900000D01*
X135920000Y-63750000D02*
X165500000Y-63750000D01*
X165500000Y-63450000D02*
X135920000Y-63450000D01*
X135920000Y-63600000D02*
X165500000Y-63600000D01*
D11*
%TO.C,C6*%
X124862200Y-83490620D02*
X124862200Y-84506620D01*
X126490340Y-84506620D02*
X126490340Y-83483000D01*
X126485260Y-84511700D02*
X124874900Y-84511700D01*
X126485260Y-81445920D02*
X124874900Y-81445920D01*
X126490340Y-81451000D02*
X126490340Y-82474620D01*
X124862200Y-82467000D02*
X124862200Y-81451000D01*
D12*
%TO.C,C2*%
X169310000Y-130800000D02*
X169310000Y-127600000D01*
X167310000Y-127500000D02*
X167310000Y-127600000D01*
X171610000Y-127500000D02*
X171610000Y-127600000D01*
X171610000Y-127500000D02*
X167410000Y-127500000D01*
X167310000Y-130800000D02*
X167310000Y-130600000D01*
X167310000Y-130800000D02*
X171610000Y-130800000D01*
X171610000Y-130800000D02*
X171610000Y-130600000D01*
D10*
%TO.C,C1*%
X174440000Y-138190000D02*
X174440000Y-134090000D01*
X176440000Y-138190000D02*
X176440000Y-134090000D01*
X176440000Y-136790000D02*
X174440000Y-136790000D01*
X174440000Y-138190000D02*
X176440000Y-138190000D01*
X176440000Y-134090000D02*
X174440000Y-134090000D01*
D11*
%TO.C,CF1*%
X166659380Y-133537200D02*
X165643380Y-133537200D01*
X165643380Y-135165340D02*
X166667000Y-135165340D01*
X165638300Y-135160260D02*
X165638300Y-133549900D01*
X168704080Y-135160260D02*
X168704080Y-133549900D01*
X168699000Y-135165340D02*
X167675380Y-135165340D01*
X167683000Y-133537200D02*
X168699000Y-133537200D01*
D12*
%TO.C,D1*%
X174350000Y-129875000D02*
X176650000Y-129875000D01*
X174350000Y-127710000D02*
X174350000Y-133310000D01*
X174350000Y-133310000D02*
X176750000Y-133310000D01*
X176750000Y-133310000D02*
X176750000Y-127710000D01*
X176750000Y-127710000D02*
X174350000Y-127710000D01*
D10*
%TO.C,L1*%
X177825000Y-129590000D02*
X177825000Y-131590000D01*
X181325000Y-129590000D02*
X177825000Y-129590000D01*
X181325000Y-131590000D02*
X181325000Y-129590000D01*
X181325000Y-134590000D02*
X181325000Y-132590000D01*
X177825000Y-134590000D02*
X181325000Y-134590000D01*
X177825000Y-132590000D02*
X177825000Y-134590000D01*
%TO.C,R2*%
X168395000Y-135870000D02*
X167695000Y-135870000D01*
X167695000Y-135870000D02*
X167695000Y-137070000D01*
X167695000Y-137070000D02*
X168395000Y-137070000D01*
X169295000Y-135870000D02*
X169995000Y-135870000D01*
X169995000Y-135870000D02*
X169995000Y-137070000D01*
X169995000Y-137070000D02*
X169295000Y-137070000D01*
D11*
%TO.C,R3*%
X171659380Y-136667200D02*
X170643380Y-136667200D01*
X170643380Y-138295340D02*
X171667000Y-138295340D01*
X170638300Y-138290260D02*
X170638300Y-136679900D01*
X173704080Y-138290260D02*
X173704080Y-136679900D01*
X173699000Y-138295340D02*
X172675380Y-138295340D01*
X172683000Y-136667200D02*
X173699000Y-136667200D01*
D10*
%TO.C,U1*%
X173445000Y-133980000D02*
X172845000Y-133380000D01*
X173445000Y-133880000D02*
X172945000Y-133380000D01*
X173445000Y-133730000D02*
X173095000Y-133380000D01*
X173445000Y-133580000D02*
X173245000Y-133380000D01*
X173445000Y-133480000D02*
X173345000Y-133380000D01*
D11*
X170875000Y-133318000D02*
X173478500Y-133318000D01*
X173478500Y-133318000D02*
X173478500Y-134842000D01*
X173478500Y-134842000D02*
X170875000Y-134842000D01*
X170875000Y-134842000D02*
X170875000Y-133318000D01*
%TO.C,R5*%
X170785620Y-140352800D02*
X171801620Y-140352800D01*
X171801620Y-138724660D02*
X170778000Y-138724660D01*
X171806700Y-138729740D02*
X171806700Y-140340100D01*
X168740920Y-138729740D02*
X168740920Y-140340100D01*
X168746000Y-138724660D02*
X169769620Y-138724660D01*
X169762000Y-140352800D02*
X168746000Y-140352800D01*
%TO.C,C3*%
X124960494Y-77530040D02*
X123944494Y-77530040D01*
X123944494Y-79158180D02*
X124968114Y-79158180D01*
X123939414Y-79153100D02*
X123939414Y-77542740D01*
X127005194Y-79153100D02*
X127005194Y-77542740D01*
X127000114Y-79158180D02*
X125976494Y-79158180D01*
X125984114Y-77530040D02*
X127000114Y-77530040D01*
%TO.C,C4*%
X165512800Y-123674380D02*
X165512800Y-122658380D01*
X163884660Y-122658380D02*
X163884660Y-123682000D01*
X163889740Y-122653300D02*
X165500100Y-122653300D01*
X163889740Y-125719080D02*
X165500100Y-125719080D01*
X163884660Y-125714000D02*
X163884660Y-124690380D01*
X165512800Y-124698000D02*
X165512800Y-125714000D01*
%TO.C,C5*%
X163522800Y-124124380D02*
X163522800Y-123108380D01*
X161894660Y-123108380D02*
X161894660Y-124132000D01*
X161899740Y-123103300D02*
X163510100Y-123103300D01*
X161899740Y-126169080D02*
X163510100Y-126169080D01*
X161894660Y-126164000D02*
X161894660Y-125140380D01*
X163522800Y-125148000D02*
X163522800Y-126164000D01*
%TO.C,R22*%
X173534380Y-139977200D02*
X172518380Y-139977200D01*
X172518380Y-141605340D02*
X173542000Y-141605340D01*
X172513300Y-141600260D02*
X172513300Y-139989900D01*
X175579080Y-141600260D02*
X175579080Y-139989900D01*
X175574000Y-141605340D02*
X174550380Y-141605340D01*
X174558000Y-139977200D02*
X175574000Y-139977200D01*
D10*
%TO.C,P3*%
X158960000Y-129450000D02*
X158960000Y-137450000D01*
X158960000Y-137450000D02*
X159960000Y-137450000D01*
X163160000Y-137150000D02*
X163160000Y-136050000D01*
X163160000Y-130850000D02*
X163160000Y-129750000D01*
X159960000Y-129450000D02*
X158960000Y-129450000D01*
X159960000Y-131950000D02*
X162660000Y-131950000D01*
X159960000Y-134950000D02*
X162660000Y-134950000D01*
X163160000Y-130850000D02*
X163160000Y-131950000D01*
X163160000Y-131950000D02*
X162660000Y-131950000D01*
X162660000Y-131950000D02*
X162660000Y-134950000D01*
X162660000Y-134950000D02*
X163160000Y-134950000D01*
X163160000Y-134950000D02*
X163160000Y-136050000D01*
X159960000Y-131950000D02*
X159560000Y-131950000D01*
X159560000Y-131950000D02*
X159560000Y-131550000D01*
X159560000Y-131550000D02*
X158960000Y-131550000D01*
X159960000Y-134950000D02*
X159560000Y-134950000D01*
X159560000Y-134950000D02*
X159560000Y-135350000D01*
X159560000Y-135350000D02*
X158960000Y-135350000D01*
X159960000Y-131950000D02*
X159960000Y-134950000D01*
X159960000Y-129450000D02*
X159960000Y-129550000D01*
X159960000Y-129550000D02*
X163160000Y-129550000D01*
X163160000Y-129550000D02*
X163160000Y-129750000D01*
X159960000Y-137450000D02*
X159960000Y-137350000D01*
X159960000Y-137350000D02*
X163160000Y-137350000D01*
X163160000Y-137350000D02*
X163160000Y-137150000D01*
%TO.C,P4*%
X150760000Y-100350000D02*
X151360000Y-100350000D01*
X151810000Y-99650000D02*
X151810000Y-89700000D01*
X152360000Y-89650000D02*
X152360000Y-99650000D01*
X150760000Y-88950000D02*
X151360000Y-88950000D01*
X151360000Y-89650000D02*
X152360000Y-89650000D01*
X151360000Y-99650000D02*
X152360000Y-99650000D01*
X150760000Y-88950000D02*
X150760000Y-100350000D01*
X151360000Y-100350000D02*
X151360000Y-99650000D01*
X151360000Y-88950000D02*
X151360000Y-89650000D01*
X152360000Y-91950000D02*
X155760000Y-91950000D01*
X155760000Y-91950000D02*
X155760000Y-92650000D01*
X152360000Y-97350000D02*
X155760000Y-97350000D01*
X155760000Y-97350000D02*
X155760000Y-96650000D01*
D13*
%TO.C,U2*%
X130236114Y-79042840D02*
X129136114Y-80142840D01*
X130036114Y-79042840D02*
X129136114Y-79942840D01*
X129836114Y-79042840D02*
X129136114Y-79742840D01*
X129636114Y-79042840D02*
X129136114Y-79542840D01*
X129436114Y-79042840D02*
X129136114Y-79342840D01*
X133586114Y-84392840D02*
X133586114Y-78992840D01*
X133586114Y-78992840D02*
X129086114Y-78992840D01*
X129086114Y-78992840D02*
X129086114Y-84392840D01*
X129086114Y-84392840D02*
X133586114Y-84392840D01*
D11*
%TO.C,R1*%
X166679380Y-131377200D02*
X165663380Y-131377200D01*
X165663380Y-133005340D02*
X166687000Y-133005340D01*
X165658300Y-133000260D02*
X165658300Y-131389900D01*
X168724080Y-133000260D02*
X168724080Y-131389900D01*
X168719000Y-133005340D02*
X167695380Y-133005340D01*
X167703000Y-131377200D02*
X168719000Y-131377200D01*
%TO.C,R6*%
X137898914Y-83317220D02*
X137898914Y-82301220D01*
X136270774Y-82301220D02*
X136270774Y-83324840D01*
X136275854Y-82296140D02*
X137886214Y-82296140D01*
X136275854Y-85361920D02*
X137886214Y-85361920D01*
X136270774Y-85356840D02*
X136270774Y-84333220D01*
X137898914Y-84340840D02*
X137898914Y-85356840D01*
%TO.C,R7*%
X139062800Y-79844380D02*
X139062800Y-78828380D01*
X137434660Y-78828380D02*
X137434660Y-79852000D01*
X137439740Y-78823300D02*
X139050100Y-78823300D01*
X137439740Y-81889080D02*
X139050100Y-81889080D01*
X137434660Y-81884000D02*
X137434660Y-80860380D01*
X139062800Y-80868000D02*
X139062800Y-81884000D01*
%TO.C,R8*%
X141052800Y-80868000D02*
X141052800Y-81884000D01*
X139424660Y-81884000D02*
X139424660Y-80860380D01*
X139429740Y-81889080D02*
X141040100Y-81889080D01*
X139429740Y-78823300D02*
X141040100Y-78823300D01*
X139424660Y-78828380D02*
X139424660Y-79852000D01*
X141052800Y-79844380D02*
X141052800Y-78828380D01*
%TO.C,R9*%
X143032800Y-79844380D02*
X143032800Y-78828380D01*
X141404660Y-78828380D02*
X141404660Y-79852000D01*
X141409740Y-78823300D02*
X143020100Y-78823300D01*
X141409740Y-81889080D02*
X143020100Y-81889080D01*
X141404660Y-81884000D02*
X141404660Y-80860380D01*
X143032800Y-80868000D02*
X143032800Y-81884000D01*
%TO.C,R10*%
X145072800Y-80868000D02*
X145072800Y-81884000D01*
X143444660Y-81884000D02*
X143444660Y-80860380D01*
X143449740Y-81889080D02*
X145060100Y-81889080D01*
X143449740Y-78823300D02*
X145060100Y-78823300D01*
X143444660Y-78828380D02*
X143444660Y-79852000D01*
X145072800Y-79844380D02*
X145072800Y-78828380D01*
%TD*%
%TO.C,P2*%
D10*
X162658095Y-101407619D02*
X162658095Y-102407619D01*
X162277142Y-102407619D01*
X162181904Y-102360000D01*
X162134285Y-102312380D01*
X162086666Y-102217142D01*
X162086666Y-102074285D01*
X162134285Y-101979047D01*
X162181904Y-101931428D01*
X162277142Y-101883809D01*
X162658095Y-101883809D01*
X161705714Y-102312380D02*
X161658095Y-102360000D01*
X161562857Y-102407619D01*
X161324761Y-102407619D01*
X161229523Y-102360000D01*
X161181904Y-102312380D01*
X161134285Y-102217142D01*
X161134285Y-102121904D01*
X161181904Y-101979047D01*
X161753333Y-101407619D01*
X161134285Y-101407619D01*
%TO.C,P1*%
D13*
X165912619Y-68714523D02*
X165912619Y-67444523D01*
X166396428Y-67444523D01*
X166517380Y-67505000D01*
X166577857Y-67565476D01*
X166638333Y-67686428D01*
X166638333Y-67867857D01*
X166577857Y-67988809D01*
X166517380Y-68049285D01*
X166396428Y-68109761D01*
X165912619Y-68109761D01*
X167847857Y-68714523D02*
X167122142Y-68714523D01*
X167485000Y-68714523D02*
X167485000Y-67444523D01*
X167364047Y-67625952D01*
X167243095Y-67746904D01*
X167122142Y-67807380D01*
%TO.C,C6*%
D11*
X124165833Y-82763214D02*
X124196071Y-82732976D01*
X124286785Y-82702738D01*
X124347261Y-82702738D01*
X124437976Y-82732976D01*
X124498452Y-82793452D01*
X124528690Y-82853928D01*
X124558928Y-82974880D01*
X124558928Y-83065595D01*
X124528690Y-83186547D01*
X124498452Y-83247023D01*
X124437976Y-83307500D01*
X124347261Y-83337738D01*
X124286785Y-83337738D01*
X124196071Y-83307500D01*
X124165833Y-83277261D01*
X123621547Y-83337738D02*
X123742500Y-83337738D01*
X123802976Y-83307500D01*
X123833214Y-83277261D01*
X123893690Y-83186547D01*
X123923928Y-83065595D01*
X123923928Y-82823690D01*
X123893690Y-82763214D01*
X123863452Y-82732976D01*
X123802976Y-82702738D01*
X123682023Y-82702738D01*
X123621547Y-82732976D01*
X123591309Y-82763214D01*
X123561071Y-82823690D01*
X123561071Y-82974880D01*
X123591309Y-83035357D01*
X123621547Y-83065595D01*
X123682023Y-83095833D01*
X123802976Y-83095833D01*
X123863452Y-83065595D01*
X123893690Y-83035357D01*
X123923928Y-82974880D01*
%TO.C,C2*%
D14*
X170016666Y-131542857D02*
X170064285Y-131495238D01*
X170207142Y-131447619D01*
X170302380Y-131447619D01*
X170445238Y-131495238D01*
X170540476Y-131590476D01*
X170588095Y-131685714D01*
X170635714Y-131876190D01*
X170635714Y-132019047D01*
X170588095Y-132209523D01*
X170540476Y-132304761D01*
X170445238Y-132400000D01*
X170302380Y-132447619D01*
X170207142Y-132447619D01*
X170064285Y-132400000D01*
X170016666Y-132352380D01*
X169635714Y-132352380D02*
X169588095Y-132400000D01*
X169492857Y-132447619D01*
X169254761Y-132447619D01*
X169159523Y-132400000D01*
X169111904Y-132352380D01*
X169064285Y-132257142D01*
X169064285Y-132161904D01*
X169111904Y-132019047D01*
X169683333Y-131447619D01*
X169064285Y-131447619D01*
%TO.C,C1*%
X177453333Y-138617142D02*
X177405714Y-138664761D01*
X177262857Y-138712380D01*
X177167619Y-138712380D01*
X177024761Y-138664761D01*
X176929523Y-138569523D01*
X176881904Y-138474285D01*
X176834285Y-138283809D01*
X176834285Y-138140952D01*
X176881904Y-137950476D01*
X176929523Y-137855238D01*
X177024761Y-137760000D01*
X177167619Y-137712380D01*
X177262857Y-137712380D01*
X177405714Y-137760000D01*
X177453333Y-137807619D01*
X178405714Y-138712380D02*
X177834285Y-138712380D01*
X178120000Y-138712380D02*
X178120000Y-137712380D01*
X178024761Y-137855238D01*
X177929523Y-137950476D01*
X177834285Y-137998095D01*
%TO.C,CF1*%
D11*
X166342023Y-136056785D02*
X166311785Y-136087023D01*
X166221071Y-136117261D01*
X166160595Y-136117261D01*
X166069880Y-136087023D01*
X166009404Y-136026547D01*
X165979166Y-135966071D01*
X165948928Y-135845119D01*
X165948928Y-135754404D01*
X165979166Y-135633452D01*
X166009404Y-135572976D01*
X166069880Y-135512500D01*
X166160595Y-135482261D01*
X166221071Y-135482261D01*
X166311785Y-135512500D01*
X166342023Y-135542738D01*
X166825833Y-135784642D02*
X166614166Y-135784642D01*
X166614166Y-136117261D02*
X166614166Y-135482261D01*
X166916547Y-135482261D01*
X167491071Y-136117261D02*
X167128214Y-136117261D01*
X167309642Y-136117261D02*
X167309642Y-135482261D01*
X167249166Y-135572976D01*
X167188690Y-135633452D01*
X167128214Y-135663690D01*
%TO.C,D1*%
D14*
X173948095Y-130597619D02*
X173948095Y-131597619D01*
X173710000Y-131597619D01*
X173567142Y-131550000D01*
X173471904Y-131454761D01*
X173424285Y-131359523D01*
X173376666Y-131169047D01*
X173376666Y-131026190D01*
X173424285Y-130835714D01*
X173471904Y-130740476D01*
X173567142Y-130645238D01*
X173710000Y-130597619D01*
X173948095Y-130597619D01*
X172424285Y-130597619D02*
X172995714Y-130597619D01*
X172710000Y-130597619D02*
X172710000Y-131597619D01*
X172805238Y-131454761D01*
X172900476Y-131359523D01*
X172995714Y-131311904D01*
%TO.C,L1*%
X179766666Y-128387619D02*
X180242857Y-128387619D01*
X180242857Y-129387619D01*
X178909523Y-128387619D02*
X179480952Y-128387619D01*
X179195238Y-128387619D02*
X179195238Y-129387619D01*
X179290476Y-129244761D01*
X179385714Y-129149523D01*
X179480952Y-129101904D01*
%TO.C,R2*%
D11*
X168634166Y-137997261D02*
X168422500Y-137694880D01*
X168271309Y-137997261D02*
X168271309Y-137362261D01*
X168513214Y-137362261D01*
X168573690Y-137392500D01*
X168603928Y-137422738D01*
X168634166Y-137483214D01*
X168634166Y-137573928D01*
X168603928Y-137634404D01*
X168573690Y-137664642D01*
X168513214Y-137694880D01*
X168271309Y-137694880D01*
X168876071Y-137422738D02*
X168906309Y-137392500D01*
X168966785Y-137362261D01*
X169117976Y-137362261D01*
X169178452Y-137392500D01*
X169208690Y-137422738D01*
X169238928Y-137483214D01*
X169238928Y-137543690D01*
X169208690Y-137634404D01*
X168845833Y-137997261D01*
X169238928Y-137997261D01*
%TO.C,R3*%
X172874166Y-139207261D02*
X172662500Y-138904880D01*
X172511309Y-139207261D02*
X172511309Y-138572261D01*
X172753214Y-138572261D01*
X172813690Y-138602500D01*
X172843928Y-138632738D01*
X172874166Y-138693214D01*
X172874166Y-138783928D01*
X172843928Y-138844404D01*
X172813690Y-138874642D01*
X172753214Y-138904880D01*
X172511309Y-138904880D01*
X173085833Y-138572261D02*
X173478928Y-138572261D01*
X173267261Y-138814166D01*
X173357976Y-138814166D01*
X173418452Y-138844404D01*
X173448690Y-138874642D01*
X173478928Y-138935119D01*
X173478928Y-139086309D01*
X173448690Y-139146785D01*
X173418452Y-139177023D01*
X173357976Y-139207261D01*
X173176547Y-139207261D01*
X173116071Y-139177023D01*
X173085833Y-139146785D01*
%TO.C,U1*%
D14*
X170501904Y-134607619D02*
X170501904Y-133798095D01*
X170454285Y-133702857D01*
X170406666Y-133655238D01*
X170311428Y-133607619D01*
X170120952Y-133607619D01*
X170025714Y-133655238D01*
X169978095Y-133702857D01*
X169930476Y-133798095D01*
X169930476Y-134607619D01*
X168930476Y-133607619D02*
X169501904Y-133607619D01*
X169216190Y-133607619D02*
X169216190Y-134607619D01*
X169311428Y-134464761D01*
X169406666Y-134369523D01*
X169501904Y-134321904D01*
%TO.C,R5*%
D11*
X168095833Y-139222738D02*
X168307500Y-139525119D01*
X168458690Y-139222738D02*
X168458690Y-139857738D01*
X168216785Y-139857738D01*
X168156309Y-139827500D01*
X168126071Y-139797261D01*
X168095833Y-139736785D01*
X168095833Y-139646071D01*
X168126071Y-139585595D01*
X168156309Y-139555357D01*
X168216785Y-139525119D01*
X168458690Y-139525119D01*
X167521309Y-139857738D02*
X167823690Y-139857738D01*
X167853928Y-139555357D01*
X167823690Y-139585595D01*
X167763214Y-139615833D01*
X167612023Y-139615833D01*
X167551547Y-139585595D01*
X167521309Y-139555357D01*
X167491071Y-139494880D01*
X167491071Y-139343690D01*
X167521309Y-139283214D01*
X167551547Y-139252976D01*
X167612023Y-139222738D01*
X167763214Y-139222738D01*
X167823690Y-139252976D01*
X167853928Y-139283214D01*
%TO.C,C3*%
X125370280Y-77049625D02*
X125340042Y-77079863D01*
X125249328Y-77110101D01*
X125188852Y-77110101D01*
X125098137Y-77079863D01*
X125037661Y-77019387D01*
X125007423Y-76958911D01*
X124977185Y-76837959D01*
X124977185Y-76747244D01*
X125007423Y-76626292D01*
X125037661Y-76565816D01*
X125098137Y-76505340D01*
X125188852Y-76475101D01*
X125249328Y-76475101D01*
X125340042Y-76505340D01*
X125370280Y-76535578D01*
X125581947Y-76475101D02*
X125975042Y-76475101D01*
X125763375Y-76717006D01*
X125854090Y-76717006D01*
X125914566Y-76747244D01*
X125944804Y-76777482D01*
X125975042Y-76837959D01*
X125975042Y-76989149D01*
X125944804Y-77049625D01*
X125914566Y-77079863D01*
X125854090Y-77110101D01*
X125672661Y-77110101D01*
X125612185Y-77079863D01*
X125581947Y-77049625D01*
%TO.C,C4*%
X164775833Y-126133214D02*
X164806071Y-126102976D01*
X164896785Y-126072738D01*
X164957261Y-126072738D01*
X165047976Y-126102976D01*
X165108452Y-126163452D01*
X165138690Y-126223928D01*
X165168928Y-126344880D01*
X165168928Y-126435595D01*
X165138690Y-126556547D01*
X165108452Y-126617023D01*
X165047976Y-126677500D01*
X164957261Y-126707738D01*
X164896785Y-126707738D01*
X164806071Y-126677500D01*
X164775833Y-126647261D01*
X164231547Y-126496071D02*
X164231547Y-126072738D01*
X164382738Y-126737976D02*
X164533928Y-126284404D01*
X164140833Y-126284404D01*
%TO.C,C5*%
X162835833Y-126553214D02*
X162866071Y-126522976D01*
X162956785Y-126492738D01*
X163017261Y-126492738D01*
X163107976Y-126522976D01*
X163168452Y-126583452D01*
X163198690Y-126643928D01*
X163228928Y-126764880D01*
X163228928Y-126855595D01*
X163198690Y-126976547D01*
X163168452Y-127037023D01*
X163107976Y-127097500D01*
X163017261Y-127127738D01*
X162956785Y-127127738D01*
X162866071Y-127097500D01*
X162835833Y-127067261D01*
X162261309Y-127127738D02*
X162563690Y-127127738D01*
X162593928Y-126825357D01*
X162563690Y-126855595D01*
X162503214Y-126885833D01*
X162352023Y-126885833D01*
X162291547Y-126855595D01*
X162261309Y-126825357D01*
X162231071Y-126764880D01*
X162231071Y-126613690D01*
X162261309Y-126553214D01*
X162291547Y-126522976D01*
X162352023Y-126492738D01*
X162503214Y-126492738D01*
X162563690Y-126522976D01*
X162593928Y-126553214D01*
%TO.C,R22*%
X173641785Y-141077261D02*
X173430119Y-140774880D01*
X173278928Y-141077261D02*
X173278928Y-140442261D01*
X173520833Y-140442261D01*
X173581309Y-140472500D01*
X173611547Y-140502738D01*
X173641785Y-140563214D01*
X173641785Y-140653928D01*
X173611547Y-140714404D01*
X173581309Y-140744642D01*
X173520833Y-140774880D01*
X173278928Y-140774880D01*
X173883690Y-140502738D02*
X173913928Y-140472500D01*
X173974404Y-140442261D01*
X174125595Y-140442261D01*
X174186071Y-140472500D01*
X174216309Y-140502738D01*
X174246547Y-140563214D01*
X174246547Y-140623690D01*
X174216309Y-140714404D01*
X173853452Y-141077261D01*
X174246547Y-141077261D01*
X174488452Y-140502738D02*
X174518690Y-140472500D01*
X174579166Y-140442261D01*
X174730357Y-140442261D01*
X174790833Y-140472500D01*
X174821071Y-140502738D01*
X174851309Y-140563214D01*
X174851309Y-140623690D01*
X174821071Y-140714404D01*
X174458214Y-141077261D01*
X174851309Y-141077261D01*
%TO.C,P3*%
D10*
X163788095Y-138457619D02*
X163788095Y-139457619D01*
X163407142Y-139457619D01*
X163311904Y-139410000D01*
X163264285Y-139362380D01*
X163216666Y-139267142D01*
X163216666Y-139124285D01*
X163264285Y-139029047D01*
X163311904Y-138981428D01*
X163407142Y-138933809D01*
X163788095Y-138933809D01*
X162883333Y-139457619D02*
X162264285Y-139457619D01*
X162597619Y-139076666D01*
X162454761Y-139076666D01*
X162359523Y-139029047D01*
X162311904Y-138981428D01*
X162264285Y-138886190D01*
X162264285Y-138648095D01*
X162311904Y-138552857D01*
X162359523Y-138505238D01*
X162454761Y-138457619D01*
X162740476Y-138457619D01*
X162835714Y-138505238D01*
X162883333Y-138552857D01*
%TO.C,P4*%
X155058095Y-87737619D02*
X155058095Y-88737619D01*
X154677142Y-88737619D01*
X154581904Y-88690000D01*
X154534285Y-88642380D01*
X154486666Y-88547142D01*
X154486666Y-88404285D01*
X154534285Y-88309047D01*
X154581904Y-88261428D01*
X154677142Y-88213809D01*
X155058095Y-88213809D01*
X153629523Y-88404285D02*
X153629523Y-87737619D01*
X153867619Y-88785238D02*
X154105714Y-88070952D01*
X153486666Y-88070952D01*
%TO.C,U2*%
X130598095Y-84782380D02*
X130598095Y-85591904D01*
X130645714Y-85687142D01*
X130693333Y-85734761D01*
X130788571Y-85782380D01*
X130979047Y-85782380D01*
X131074285Y-85734761D01*
X131121904Y-85687142D01*
X131169523Y-85591904D01*
X131169523Y-84782380D01*
X131598095Y-84877619D02*
X131645714Y-84830000D01*
X131740952Y-84782380D01*
X131979047Y-84782380D01*
X132074285Y-84830000D01*
X132121904Y-84877619D01*
X132169523Y-84972857D01*
X132169523Y-85068095D01*
X132121904Y-85210952D01*
X131550476Y-85782380D01*
X132169523Y-85782380D01*
%TO.C,R1*%
D11*
X165894166Y-131077261D02*
X165682500Y-130774880D01*
X165531309Y-131077261D02*
X165531309Y-130442261D01*
X165773214Y-130442261D01*
X165833690Y-130472500D01*
X165863928Y-130502738D01*
X165894166Y-130563214D01*
X165894166Y-130653928D01*
X165863928Y-130714404D01*
X165833690Y-130744642D01*
X165773214Y-130774880D01*
X165531309Y-130774880D01*
X166498928Y-131077261D02*
X166136071Y-131077261D01*
X166317500Y-131077261D02*
X166317500Y-130442261D01*
X166257023Y-130532976D01*
X166196547Y-130593452D01*
X166136071Y-130623690D01*
%TO.C,R6*%
X136974166Y-86397261D02*
X136762500Y-86094880D01*
X136611309Y-86397261D02*
X136611309Y-85762261D01*
X136853214Y-85762261D01*
X136913690Y-85792500D01*
X136943928Y-85822738D01*
X136974166Y-85883214D01*
X136974166Y-85973928D01*
X136943928Y-86034404D01*
X136913690Y-86064642D01*
X136853214Y-86094880D01*
X136611309Y-86094880D01*
X137518452Y-85762261D02*
X137397500Y-85762261D01*
X137337023Y-85792500D01*
X137306785Y-85822738D01*
X137246309Y-85913452D01*
X137216071Y-86034404D01*
X137216071Y-86276309D01*
X137246309Y-86336785D01*
X137276547Y-86367023D01*
X137337023Y-86397261D01*
X137457976Y-86397261D01*
X137518452Y-86367023D01*
X137548690Y-86336785D01*
X137578928Y-86276309D01*
X137578928Y-86125119D01*
X137548690Y-86064642D01*
X137518452Y-86034404D01*
X137457976Y-86004166D01*
X137337023Y-86004166D01*
X137276547Y-86034404D01*
X137246309Y-86064642D01*
X137216071Y-86125119D01*
%TO.C,R7*%
X138124166Y-78537261D02*
X137912500Y-78234880D01*
X137761309Y-78537261D02*
X137761309Y-77902261D01*
X138003214Y-77902261D01*
X138063690Y-77932500D01*
X138093928Y-77962738D01*
X138124166Y-78023214D01*
X138124166Y-78113928D01*
X138093928Y-78174404D01*
X138063690Y-78204642D01*
X138003214Y-78234880D01*
X137761309Y-78234880D01*
X138335833Y-77902261D02*
X138759166Y-77902261D01*
X138487023Y-78537261D01*
%TO.C,R8*%
X140134166Y-78537261D02*
X139922500Y-78234880D01*
X139771309Y-78537261D02*
X139771309Y-77902261D01*
X140013214Y-77902261D01*
X140073690Y-77932500D01*
X140103928Y-77962738D01*
X140134166Y-78023214D01*
X140134166Y-78113928D01*
X140103928Y-78174404D01*
X140073690Y-78204642D01*
X140013214Y-78234880D01*
X139771309Y-78234880D01*
X140497023Y-78174404D02*
X140436547Y-78144166D01*
X140406309Y-78113928D01*
X140376071Y-78053452D01*
X140376071Y-78023214D01*
X140406309Y-77962738D01*
X140436547Y-77932500D01*
X140497023Y-77902261D01*
X140617976Y-77902261D01*
X140678452Y-77932500D01*
X140708690Y-77962738D01*
X140738928Y-78023214D01*
X140738928Y-78053452D01*
X140708690Y-78113928D01*
X140678452Y-78144166D01*
X140617976Y-78174404D01*
X140497023Y-78174404D01*
X140436547Y-78204642D01*
X140406309Y-78234880D01*
X140376071Y-78295357D01*
X140376071Y-78416309D01*
X140406309Y-78476785D01*
X140436547Y-78507023D01*
X140497023Y-78537261D01*
X140617976Y-78537261D01*
X140678452Y-78507023D01*
X140708690Y-78476785D01*
X140738928Y-78416309D01*
X140738928Y-78295357D01*
X140708690Y-78234880D01*
X140678452Y-78204642D01*
X140617976Y-78174404D01*
%TO.C,R9*%
X142114166Y-78527261D02*
X141902500Y-78224880D01*
X141751309Y-78527261D02*
X141751309Y-77892261D01*
X141993214Y-77892261D01*
X142053690Y-77922500D01*
X142083928Y-77952738D01*
X142114166Y-78013214D01*
X142114166Y-78103928D01*
X142083928Y-78164404D01*
X142053690Y-78194642D01*
X141993214Y-78224880D01*
X141751309Y-78224880D01*
X142416547Y-78527261D02*
X142537500Y-78527261D01*
X142597976Y-78497023D01*
X142628214Y-78466785D01*
X142688690Y-78376071D01*
X142718928Y-78255119D01*
X142718928Y-78013214D01*
X142688690Y-77952738D01*
X142658452Y-77922500D01*
X142597976Y-77892261D01*
X142477023Y-77892261D01*
X142416547Y-77922500D01*
X142386309Y-77952738D01*
X142356071Y-78013214D01*
X142356071Y-78164404D01*
X142386309Y-78224880D01*
X142416547Y-78255119D01*
X142477023Y-78285357D01*
X142597976Y-78285357D01*
X142658452Y-78255119D01*
X142688690Y-78224880D01*
X142718928Y-78164404D01*
%TO.C,R10*%
X144648214Y-77952738D02*
X144859880Y-78255119D01*
X145011071Y-77952738D02*
X145011071Y-78587738D01*
X144769166Y-78587738D01*
X144708690Y-78557500D01*
X144678452Y-78527261D01*
X144648214Y-78466785D01*
X144648214Y-78376071D01*
X144678452Y-78315595D01*
X144708690Y-78285357D01*
X144769166Y-78255119D01*
X145011071Y-78255119D01*
X144043452Y-77952738D02*
X144406309Y-77952738D01*
X144224880Y-77952738D02*
X144224880Y-78587738D01*
X144285357Y-78497023D01*
X144345833Y-78436547D01*
X144406309Y-78406309D01*
X143650357Y-78587738D02*
X143589880Y-78587738D01*
X143529404Y-78557500D01*
X143499166Y-78527261D01*
X143468928Y-78466785D01*
X143438690Y-78345833D01*
X143438690Y-78194642D01*
X143468928Y-78073690D01*
X143499166Y-78013214D01*
X143529404Y-77982976D01*
X143589880Y-77952738D01*
X143650357Y-77952738D01*
X143710833Y-77982976D01*
X143741071Y-78013214D01*
X143771309Y-78073690D01*
X143801547Y-78194642D01*
X143801547Y-78345833D01*
X143771309Y-78466785D01*
X143741071Y-78527261D01*
X143710833Y-78557500D01*
X143650357Y-78587738D01*
%TD*%
M02*
