%TF.GenerationSoftware,KiCad,Pcbnew,no-vcs-found-3ed106f~61~ubuntu16.04.1*%
%TF.CreationDate,2017-10-29T09:33:10+01:00*%
%TF.ProjectId,TFT_LCD_4_3_AM480272H2T_V1_0,5446545F4C43445F345F335F414D3438,V1_0*%
%TF.SameCoordinates,Original*%
%TF.FileFunction,Soldermask,Top*%
%TF.FilePolarity,Negative*%
%FSLAX46Y46*%
G04 Gerber Fmt 4.6, Leading zero omitted, Abs format (unit mm)*
G04 Created by KiCad (PCBNEW no-vcs-found-3ed106f~61~ubuntu16.04.1) date Sun Oct 29 09:33:10 2017*
%MOMM*%
%LPD*%
G01*
G04 APERTURE LIST*
%ADD10C,0.150000*%
%ADD11R,0.320000X1.020000*%
%ADD12R,2.720000X3.020000*%
%ADD13R,1.797000X1.289000*%
%ADD14C,0.100000*%
%ADD15C,2.060000*%
%ADD16C,0.320000*%
%ADD17R,2.350720X2.899360*%
%ADD18R,1.900000X1.200000*%
%ADD19R,1.289000X1.797000*%
%ADD20R,2.200000X1.400000*%
%ADD21R,3.000000X2.000000*%
%ADD22R,0.620000X1.020000*%
%ADD23O,0.750000X1.100760*%
%ADD24C,0.440000*%
%ADD25C,2.000000*%
%ADD26C,0.840000*%
%ADD27C,2.500000*%
%ADD28O,1.620200X0.470000*%
G04 APERTURE END LIST*
D10*
X131450000Y-47210000D02*
G75*
G03X131450000Y-47210000I-2000000J0D01*
G01*
X177900000Y-112940000D02*
G75*
G03X177900000Y-112940000I-2000000J0D01*
G01*
X173930000Y-46990000D02*
G75*
G03X173930000Y-46990000I-2000000J0D01*
G01*
X116960000Y-143450000D02*
X184460000Y-143450000D01*
X116960000Y-37750000D02*
X116960000Y-143450000D01*
X184460000Y-37750000D02*
X184460000Y-143450000D01*
X116960000Y-37750000D02*
X184460000Y-37750000D01*
D11*
%TO.C,P1*%
X139960000Y-72800000D03*
X140460000Y-72800000D03*
X139460000Y-72800000D03*
X138960000Y-72800000D03*
X138460000Y-72800000D03*
X140960000Y-72800000D03*
X141460000Y-72800000D03*
X141960000Y-72800000D03*
X142460000Y-72800000D03*
X142960000Y-72800000D03*
D12*
X137410000Y-65700000D03*
D11*
X143460000Y-72800000D03*
X144960000Y-72800000D03*
X145460000Y-72800000D03*
X144460000Y-72800000D03*
X143960000Y-72800000D03*
X147960000Y-72800000D03*
X145960000Y-72800000D03*
X146460000Y-72800000D03*
X146960000Y-72800000D03*
X147460000Y-72800000D03*
X148960000Y-72800000D03*
X149460000Y-72800000D03*
X148460000Y-72800000D03*
X149960000Y-72800000D03*
X152460000Y-72800000D03*
X153960000Y-72800000D03*
X152960000Y-72800000D03*
X153460000Y-72800000D03*
X151960000Y-72800000D03*
X150460000Y-72800000D03*
X151460000Y-72800000D03*
X150960000Y-72800000D03*
X157960000Y-72800000D03*
X154460000Y-72800000D03*
X154960000Y-72800000D03*
X155460000Y-72800000D03*
X156960000Y-72800000D03*
X155960000Y-72800000D03*
X156460000Y-72800000D03*
X157460000Y-72800000D03*
X159460000Y-72800000D03*
X159960000Y-72800000D03*
X160460000Y-72800000D03*
X158960000Y-72800000D03*
X158460000Y-72800000D03*
X160960000Y-72800000D03*
X161460000Y-72800000D03*
X162960000Y-72800000D03*
X161960000Y-72800000D03*
X162460000Y-72800000D03*
D12*
X164010000Y-65700000D03*
%TD*%
D13*
%TO.C,C6*%
X125675000Y-83927500D03*
X125675000Y-82022500D03*
%TD*%
D14*
%TO.C,P2*%
G36*
X159425479Y-124062480D02*
X159475472Y-124069896D01*
X159524497Y-124082176D01*
X159572082Y-124099202D01*
X159617769Y-124120811D01*
X159661119Y-124146793D01*
X159701713Y-124176900D01*
X159739160Y-124210840D01*
X159773100Y-124248287D01*
X159803207Y-124288881D01*
X159829189Y-124332231D01*
X159850798Y-124377918D01*
X159867824Y-124425503D01*
X159880104Y-124474528D01*
X159887520Y-124524521D01*
X159890000Y-124575000D01*
X159890000Y-125605000D01*
X159887520Y-125655479D01*
X159880104Y-125705472D01*
X159867824Y-125754497D01*
X159850798Y-125802082D01*
X159829189Y-125847769D01*
X159803207Y-125891119D01*
X159773100Y-125931713D01*
X159739160Y-125969160D01*
X159701713Y-126003100D01*
X159661119Y-126033207D01*
X159617769Y-126059189D01*
X159572082Y-126080798D01*
X159524497Y-126097824D01*
X159475472Y-126110104D01*
X159425479Y-126117520D01*
X159375000Y-126120000D01*
X158345000Y-126120000D01*
X158294521Y-126117520D01*
X158244528Y-126110104D01*
X158195503Y-126097824D01*
X158147918Y-126080798D01*
X158102231Y-126059189D01*
X158058881Y-126033207D01*
X158018287Y-126003100D01*
X157980840Y-125969160D01*
X157946900Y-125931713D01*
X157916793Y-125891119D01*
X157890811Y-125847769D01*
X157869202Y-125802082D01*
X157852176Y-125754497D01*
X157839896Y-125705472D01*
X157832480Y-125655479D01*
X157830000Y-125605000D01*
X157830000Y-124575000D01*
X157832480Y-124524521D01*
X157839896Y-124474528D01*
X157852176Y-124425503D01*
X157869202Y-124377918D01*
X157890811Y-124332231D01*
X157916793Y-124288881D01*
X157946900Y-124248287D01*
X157980840Y-124210840D01*
X158018287Y-124176900D01*
X158058881Y-124146793D01*
X158102231Y-124120811D01*
X158147918Y-124099202D01*
X158195503Y-124082176D01*
X158244528Y-124069896D01*
X158294521Y-124062480D01*
X158345000Y-124060000D01*
X159375000Y-124060000D01*
X159425479Y-124062480D01*
X159425479Y-124062480D01*
G37*
D15*
X158860000Y-125090000D03*
D14*
G36*
X161322841Y-105540385D02*
X161330607Y-105541537D01*
X161338223Y-105543445D01*
X161345615Y-105546090D01*
X161352712Y-105549446D01*
X161359446Y-105553482D01*
X161365751Y-105558159D01*
X161371569Y-105563431D01*
X161376841Y-105569249D01*
X161381518Y-105575554D01*
X161385554Y-105582288D01*
X161388910Y-105589385D01*
X161391555Y-105596777D01*
X161393463Y-105604393D01*
X161394615Y-105612159D01*
X161395000Y-105620000D01*
X161395000Y-105780000D01*
X161394615Y-105787841D01*
X161393463Y-105795607D01*
X161391555Y-105803223D01*
X161388910Y-105810615D01*
X161385554Y-105817712D01*
X161381518Y-105824446D01*
X161376841Y-105830751D01*
X161371569Y-105836569D01*
X161365751Y-105841841D01*
X161359446Y-105846518D01*
X161352712Y-105850554D01*
X161345615Y-105853910D01*
X161338223Y-105856555D01*
X161330607Y-105858463D01*
X161322841Y-105859615D01*
X161315000Y-105860000D01*
X160205000Y-105860000D01*
X160197159Y-105859615D01*
X160189393Y-105858463D01*
X160181777Y-105856555D01*
X160174385Y-105853910D01*
X160167288Y-105850554D01*
X160160554Y-105846518D01*
X160154249Y-105841841D01*
X160148431Y-105836569D01*
X160143159Y-105830751D01*
X160138482Y-105824446D01*
X160134446Y-105817712D01*
X160131090Y-105810615D01*
X160128445Y-105803223D01*
X160126537Y-105795607D01*
X160125385Y-105787841D01*
X160125000Y-105780000D01*
X160125000Y-105620000D01*
X160125385Y-105612159D01*
X160126537Y-105604393D01*
X160128445Y-105596777D01*
X160131090Y-105589385D01*
X160134446Y-105582288D01*
X160138482Y-105575554D01*
X160143159Y-105569249D01*
X160148431Y-105563431D01*
X160154249Y-105558159D01*
X160160554Y-105553482D01*
X160167288Y-105549446D01*
X160174385Y-105546090D01*
X160181777Y-105543445D01*
X160189393Y-105541537D01*
X160197159Y-105540385D01*
X160205000Y-105540000D01*
X161315000Y-105540000D01*
X161322841Y-105540385D01*
X161322841Y-105540385D01*
G37*
D16*
X160760000Y-105700000D03*
D14*
G36*
X159425479Y-101782480D02*
X159475472Y-101789896D01*
X159524497Y-101802176D01*
X159572082Y-101819202D01*
X159617769Y-101840811D01*
X159661119Y-101866793D01*
X159701713Y-101896900D01*
X159739160Y-101930840D01*
X159773100Y-101968287D01*
X159803207Y-102008881D01*
X159829189Y-102052231D01*
X159850798Y-102097918D01*
X159867824Y-102145503D01*
X159880104Y-102194528D01*
X159887520Y-102244521D01*
X159890000Y-102295000D01*
X159890000Y-103325000D01*
X159887520Y-103375479D01*
X159880104Y-103425472D01*
X159867824Y-103474497D01*
X159850798Y-103522082D01*
X159829189Y-103567769D01*
X159803207Y-103611119D01*
X159773100Y-103651713D01*
X159739160Y-103689160D01*
X159701713Y-103723100D01*
X159661119Y-103753207D01*
X159617769Y-103779189D01*
X159572082Y-103800798D01*
X159524497Y-103817824D01*
X159475472Y-103830104D01*
X159425479Y-103837520D01*
X159375000Y-103840000D01*
X158345000Y-103840000D01*
X158294521Y-103837520D01*
X158244528Y-103830104D01*
X158195503Y-103817824D01*
X158147918Y-103800798D01*
X158102231Y-103779189D01*
X158058881Y-103753207D01*
X158018287Y-103723100D01*
X157980840Y-103689160D01*
X157946900Y-103651713D01*
X157916793Y-103611119D01*
X157890811Y-103567769D01*
X157869202Y-103522082D01*
X157852176Y-103474497D01*
X157839896Y-103425472D01*
X157832480Y-103375479D01*
X157830000Y-103325000D01*
X157830000Y-102295000D01*
X157832480Y-102244521D01*
X157839896Y-102194528D01*
X157852176Y-102145503D01*
X157869202Y-102097918D01*
X157890811Y-102052231D01*
X157916793Y-102008881D01*
X157946900Y-101968287D01*
X157980840Y-101930840D01*
X158018287Y-101896900D01*
X158058881Y-101866793D01*
X158102231Y-101840811D01*
X158147918Y-101819202D01*
X158195503Y-101802176D01*
X158244528Y-101789896D01*
X158294521Y-101782480D01*
X158345000Y-101780000D01*
X159375000Y-101780000D01*
X159425479Y-101782480D01*
X159425479Y-101782480D01*
G37*
D15*
X158860000Y-102810000D03*
D14*
G36*
X161322841Y-107040385D02*
X161330607Y-107041537D01*
X161338223Y-107043445D01*
X161345615Y-107046090D01*
X161352712Y-107049446D01*
X161359446Y-107053482D01*
X161365751Y-107058159D01*
X161371569Y-107063431D01*
X161376841Y-107069249D01*
X161381518Y-107075554D01*
X161385554Y-107082288D01*
X161388910Y-107089385D01*
X161391555Y-107096777D01*
X161393463Y-107104393D01*
X161394615Y-107112159D01*
X161395000Y-107120000D01*
X161395000Y-107280000D01*
X161394615Y-107287841D01*
X161393463Y-107295607D01*
X161391555Y-107303223D01*
X161388910Y-107310615D01*
X161385554Y-107317712D01*
X161381518Y-107324446D01*
X161376841Y-107330751D01*
X161371569Y-107336569D01*
X161365751Y-107341841D01*
X161359446Y-107346518D01*
X161352712Y-107350554D01*
X161345615Y-107353910D01*
X161338223Y-107356555D01*
X161330607Y-107358463D01*
X161322841Y-107359615D01*
X161315000Y-107360000D01*
X160205000Y-107360000D01*
X160197159Y-107359615D01*
X160189393Y-107358463D01*
X160181777Y-107356555D01*
X160174385Y-107353910D01*
X160167288Y-107350554D01*
X160160554Y-107346518D01*
X160154249Y-107341841D01*
X160148431Y-107336569D01*
X160143159Y-107330751D01*
X160138482Y-107324446D01*
X160134446Y-107317712D01*
X160131090Y-107310615D01*
X160128445Y-107303223D01*
X160126537Y-107295607D01*
X160125385Y-107287841D01*
X160125000Y-107280000D01*
X160125000Y-107120000D01*
X160125385Y-107112159D01*
X160126537Y-107104393D01*
X160128445Y-107096777D01*
X160131090Y-107089385D01*
X160134446Y-107082288D01*
X160138482Y-107075554D01*
X160143159Y-107069249D01*
X160148431Y-107063431D01*
X160154249Y-107058159D01*
X160160554Y-107053482D01*
X160167288Y-107049446D01*
X160174385Y-107046090D01*
X160181777Y-107043445D01*
X160189393Y-107041537D01*
X160197159Y-107040385D01*
X160205000Y-107040000D01*
X161315000Y-107040000D01*
X161322841Y-107040385D01*
X161322841Y-107040385D01*
G37*
D16*
X160760000Y-107200000D03*
D14*
G36*
X161322841Y-104540385D02*
X161330607Y-104541537D01*
X161338223Y-104543445D01*
X161345615Y-104546090D01*
X161352712Y-104549446D01*
X161359446Y-104553482D01*
X161365751Y-104558159D01*
X161371569Y-104563431D01*
X161376841Y-104569249D01*
X161381518Y-104575554D01*
X161385554Y-104582288D01*
X161388910Y-104589385D01*
X161391555Y-104596777D01*
X161393463Y-104604393D01*
X161394615Y-104612159D01*
X161395000Y-104620000D01*
X161395000Y-104780000D01*
X161394615Y-104787841D01*
X161393463Y-104795607D01*
X161391555Y-104803223D01*
X161388910Y-104810615D01*
X161385554Y-104817712D01*
X161381518Y-104824446D01*
X161376841Y-104830751D01*
X161371569Y-104836569D01*
X161365751Y-104841841D01*
X161359446Y-104846518D01*
X161352712Y-104850554D01*
X161345615Y-104853910D01*
X161338223Y-104856555D01*
X161330607Y-104858463D01*
X161322841Y-104859615D01*
X161315000Y-104860000D01*
X160205000Y-104860000D01*
X160197159Y-104859615D01*
X160189393Y-104858463D01*
X160181777Y-104856555D01*
X160174385Y-104853910D01*
X160167288Y-104850554D01*
X160160554Y-104846518D01*
X160154249Y-104841841D01*
X160148431Y-104836569D01*
X160143159Y-104830751D01*
X160138482Y-104824446D01*
X160134446Y-104817712D01*
X160131090Y-104810615D01*
X160128445Y-104803223D01*
X160126537Y-104795607D01*
X160125385Y-104787841D01*
X160125000Y-104780000D01*
X160125000Y-104620000D01*
X160125385Y-104612159D01*
X160126537Y-104604393D01*
X160128445Y-104596777D01*
X160131090Y-104589385D01*
X160134446Y-104582288D01*
X160138482Y-104575554D01*
X160143159Y-104569249D01*
X160148431Y-104563431D01*
X160154249Y-104558159D01*
X160160554Y-104553482D01*
X160167288Y-104549446D01*
X160174385Y-104546090D01*
X160181777Y-104543445D01*
X160189393Y-104541537D01*
X160197159Y-104540385D01*
X160205000Y-104540000D01*
X161315000Y-104540000D01*
X161322841Y-104540385D01*
X161322841Y-104540385D01*
G37*
D16*
X160760000Y-104700000D03*
D14*
G36*
X161322841Y-107540385D02*
X161330607Y-107541537D01*
X161338223Y-107543445D01*
X161345615Y-107546090D01*
X161352712Y-107549446D01*
X161359446Y-107553482D01*
X161365751Y-107558159D01*
X161371569Y-107563431D01*
X161376841Y-107569249D01*
X161381518Y-107575554D01*
X161385554Y-107582288D01*
X161388910Y-107589385D01*
X161391555Y-107596777D01*
X161393463Y-107604393D01*
X161394615Y-107612159D01*
X161395000Y-107620000D01*
X161395000Y-107780000D01*
X161394615Y-107787841D01*
X161393463Y-107795607D01*
X161391555Y-107803223D01*
X161388910Y-107810615D01*
X161385554Y-107817712D01*
X161381518Y-107824446D01*
X161376841Y-107830751D01*
X161371569Y-107836569D01*
X161365751Y-107841841D01*
X161359446Y-107846518D01*
X161352712Y-107850554D01*
X161345615Y-107853910D01*
X161338223Y-107856555D01*
X161330607Y-107858463D01*
X161322841Y-107859615D01*
X161315000Y-107860000D01*
X160205000Y-107860000D01*
X160197159Y-107859615D01*
X160189393Y-107858463D01*
X160181777Y-107856555D01*
X160174385Y-107853910D01*
X160167288Y-107850554D01*
X160160554Y-107846518D01*
X160154249Y-107841841D01*
X160148431Y-107836569D01*
X160143159Y-107830751D01*
X160138482Y-107824446D01*
X160134446Y-107817712D01*
X160131090Y-107810615D01*
X160128445Y-107803223D01*
X160126537Y-107795607D01*
X160125385Y-107787841D01*
X160125000Y-107780000D01*
X160125000Y-107620000D01*
X160125385Y-107612159D01*
X160126537Y-107604393D01*
X160128445Y-107596777D01*
X160131090Y-107589385D01*
X160134446Y-107582288D01*
X160138482Y-107575554D01*
X160143159Y-107569249D01*
X160148431Y-107563431D01*
X160154249Y-107558159D01*
X160160554Y-107553482D01*
X160167288Y-107549446D01*
X160174385Y-107546090D01*
X160181777Y-107543445D01*
X160189393Y-107541537D01*
X160197159Y-107540385D01*
X160205000Y-107540000D01*
X161315000Y-107540000D01*
X161322841Y-107540385D01*
X161322841Y-107540385D01*
G37*
D16*
X160760000Y-107700000D03*
D14*
G36*
X161322841Y-105040385D02*
X161330607Y-105041537D01*
X161338223Y-105043445D01*
X161345615Y-105046090D01*
X161352712Y-105049446D01*
X161359446Y-105053482D01*
X161365751Y-105058159D01*
X161371569Y-105063431D01*
X161376841Y-105069249D01*
X161381518Y-105075554D01*
X161385554Y-105082288D01*
X161388910Y-105089385D01*
X161391555Y-105096777D01*
X161393463Y-105104393D01*
X161394615Y-105112159D01*
X161395000Y-105120000D01*
X161395000Y-105280000D01*
X161394615Y-105287841D01*
X161393463Y-105295607D01*
X161391555Y-105303223D01*
X161388910Y-105310615D01*
X161385554Y-105317712D01*
X161381518Y-105324446D01*
X161376841Y-105330751D01*
X161371569Y-105336569D01*
X161365751Y-105341841D01*
X161359446Y-105346518D01*
X161352712Y-105350554D01*
X161345615Y-105353910D01*
X161338223Y-105356555D01*
X161330607Y-105358463D01*
X161322841Y-105359615D01*
X161315000Y-105360000D01*
X160205000Y-105360000D01*
X160197159Y-105359615D01*
X160189393Y-105358463D01*
X160181777Y-105356555D01*
X160174385Y-105353910D01*
X160167288Y-105350554D01*
X160160554Y-105346518D01*
X160154249Y-105341841D01*
X160148431Y-105336569D01*
X160143159Y-105330751D01*
X160138482Y-105324446D01*
X160134446Y-105317712D01*
X160131090Y-105310615D01*
X160128445Y-105303223D01*
X160126537Y-105295607D01*
X160125385Y-105287841D01*
X160125000Y-105280000D01*
X160125000Y-105120000D01*
X160125385Y-105112159D01*
X160126537Y-105104393D01*
X160128445Y-105096777D01*
X160131090Y-105089385D01*
X160134446Y-105082288D01*
X160138482Y-105075554D01*
X160143159Y-105069249D01*
X160148431Y-105063431D01*
X160154249Y-105058159D01*
X160160554Y-105053482D01*
X160167288Y-105049446D01*
X160174385Y-105046090D01*
X160181777Y-105043445D01*
X160189393Y-105041537D01*
X160197159Y-105040385D01*
X160205000Y-105040000D01*
X161315000Y-105040000D01*
X161322841Y-105040385D01*
X161322841Y-105040385D01*
G37*
D16*
X160760000Y-105200000D03*
D14*
G36*
X161322841Y-104040385D02*
X161330607Y-104041537D01*
X161338223Y-104043445D01*
X161345615Y-104046090D01*
X161352712Y-104049446D01*
X161359446Y-104053482D01*
X161365751Y-104058159D01*
X161371569Y-104063431D01*
X161376841Y-104069249D01*
X161381518Y-104075554D01*
X161385554Y-104082288D01*
X161388910Y-104089385D01*
X161391555Y-104096777D01*
X161393463Y-104104393D01*
X161394615Y-104112159D01*
X161395000Y-104120000D01*
X161395000Y-104280000D01*
X161394615Y-104287841D01*
X161393463Y-104295607D01*
X161391555Y-104303223D01*
X161388910Y-104310615D01*
X161385554Y-104317712D01*
X161381518Y-104324446D01*
X161376841Y-104330751D01*
X161371569Y-104336569D01*
X161365751Y-104341841D01*
X161359446Y-104346518D01*
X161352712Y-104350554D01*
X161345615Y-104353910D01*
X161338223Y-104356555D01*
X161330607Y-104358463D01*
X161322841Y-104359615D01*
X161315000Y-104360000D01*
X160205000Y-104360000D01*
X160197159Y-104359615D01*
X160189393Y-104358463D01*
X160181777Y-104356555D01*
X160174385Y-104353910D01*
X160167288Y-104350554D01*
X160160554Y-104346518D01*
X160154249Y-104341841D01*
X160148431Y-104336569D01*
X160143159Y-104330751D01*
X160138482Y-104324446D01*
X160134446Y-104317712D01*
X160131090Y-104310615D01*
X160128445Y-104303223D01*
X160126537Y-104295607D01*
X160125385Y-104287841D01*
X160125000Y-104280000D01*
X160125000Y-104120000D01*
X160125385Y-104112159D01*
X160126537Y-104104393D01*
X160128445Y-104096777D01*
X160131090Y-104089385D01*
X160134446Y-104082288D01*
X160138482Y-104075554D01*
X160143159Y-104069249D01*
X160148431Y-104063431D01*
X160154249Y-104058159D01*
X160160554Y-104053482D01*
X160167288Y-104049446D01*
X160174385Y-104046090D01*
X160181777Y-104043445D01*
X160189393Y-104041537D01*
X160197159Y-104040385D01*
X160205000Y-104040000D01*
X161315000Y-104040000D01*
X161322841Y-104040385D01*
X161322841Y-104040385D01*
G37*
D16*
X160760000Y-104200000D03*
D14*
G36*
X161322841Y-106040385D02*
X161330607Y-106041537D01*
X161338223Y-106043445D01*
X161345615Y-106046090D01*
X161352712Y-106049446D01*
X161359446Y-106053482D01*
X161365751Y-106058159D01*
X161371569Y-106063431D01*
X161376841Y-106069249D01*
X161381518Y-106075554D01*
X161385554Y-106082288D01*
X161388910Y-106089385D01*
X161391555Y-106096777D01*
X161393463Y-106104393D01*
X161394615Y-106112159D01*
X161395000Y-106120000D01*
X161395000Y-106280000D01*
X161394615Y-106287841D01*
X161393463Y-106295607D01*
X161391555Y-106303223D01*
X161388910Y-106310615D01*
X161385554Y-106317712D01*
X161381518Y-106324446D01*
X161376841Y-106330751D01*
X161371569Y-106336569D01*
X161365751Y-106341841D01*
X161359446Y-106346518D01*
X161352712Y-106350554D01*
X161345615Y-106353910D01*
X161338223Y-106356555D01*
X161330607Y-106358463D01*
X161322841Y-106359615D01*
X161315000Y-106360000D01*
X160205000Y-106360000D01*
X160197159Y-106359615D01*
X160189393Y-106358463D01*
X160181777Y-106356555D01*
X160174385Y-106353910D01*
X160167288Y-106350554D01*
X160160554Y-106346518D01*
X160154249Y-106341841D01*
X160148431Y-106336569D01*
X160143159Y-106330751D01*
X160138482Y-106324446D01*
X160134446Y-106317712D01*
X160131090Y-106310615D01*
X160128445Y-106303223D01*
X160126537Y-106295607D01*
X160125385Y-106287841D01*
X160125000Y-106280000D01*
X160125000Y-106120000D01*
X160125385Y-106112159D01*
X160126537Y-106104393D01*
X160128445Y-106096777D01*
X160131090Y-106089385D01*
X160134446Y-106082288D01*
X160138482Y-106075554D01*
X160143159Y-106069249D01*
X160148431Y-106063431D01*
X160154249Y-106058159D01*
X160160554Y-106053482D01*
X160167288Y-106049446D01*
X160174385Y-106046090D01*
X160181777Y-106043445D01*
X160189393Y-106041537D01*
X160197159Y-106040385D01*
X160205000Y-106040000D01*
X161315000Y-106040000D01*
X161322841Y-106040385D01*
X161322841Y-106040385D01*
G37*
D16*
X160760000Y-106200000D03*
D14*
G36*
X161322841Y-106540385D02*
X161330607Y-106541537D01*
X161338223Y-106543445D01*
X161345615Y-106546090D01*
X161352712Y-106549446D01*
X161359446Y-106553482D01*
X161365751Y-106558159D01*
X161371569Y-106563431D01*
X161376841Y-106569249D01*
X161381518Y-106575554D01*
X161385554Y-106582288D01*
X161388910Y-106589385D01*
X161391555Y-106596777D01*
X161393463Y-106604393D01*
X161394615Y-106612159D01*
X161395000Y-106620000D01*
X161395000Y-106780000D01*
X161394615Y-106787841D01*
X161393463Y-106795607D01*
X161391555Y-106803223D01*
X161388910Y-106810615D01*
X161385554Y-106817712D01*
X161381518Y-106824446D01*
X161376841Y-106830751D01*
X161371569Y-106836569D01*
X161365751Y-106841841D01*
X161359446Y-106846518D01*
X161352712Y-106850554D01*
X161345615Y-106853910D01*
X161338223Y-106856555D01*
X161330607Y-106858463D01*
X161322841Y-106859615D01*
X161315000Y-106860000D01*
X160205000Y-106860000D01*
X160197159Y-106859615D01*
X160189393Y-106858463D01*
X160181777Y-106856555D01*
X160174385Y-106853910D01*
X160167288Y-106850554D01*
X160160554Y-106846518D01*
X160154249Y-106841841D01*
X160148431Y-106836569D01*
X160143159Y-106830751D01*
X160138482Y-106824446D01*
X160134446Y-106817712D01*
X160131090Y-106810615D01*
X160128445Y-106803223D01*
X160126537Y-106795607D01*
X160125385Y-106787841D01*
X160125000Y-106780000D01*
X160125000Y-106620000D01*
X160125385Y-106612159D01*
X160126537Y-106604393D01*
X160128445Y-106596777D01*
X160131090Y-106589385D01*
X160134446Y-106582288D01*
X160138482Y-106575554D01*
X160143159Y-106569249D01*
X160148431Y-106563431D01*
X160154249Y-106558159D01*
X160160554Y-106553482D01*
X160167288Y-106549446D01*
X160174385Y-106546090D01*
X160181777Y-106543445D01*
X160189393Y-106541537D01*
X160197159Y-106540385D01*
X160205000Y-106540000D01*
X161315000Y-106540000D01*
X161322841Y-106540385D01*
X161322841Y-106540385D01*
G37*
D16*
X160760000Y-106700000D03*
D14*
G36*
X161322841Y-112040385D02*
X161330607Y-112041537D01*
X161338223Y-112043445D01*
X161345615Y-112046090D01*
X161352712Y-112049446D01*
X161359446Y-112053482D01*
X161365751Y-112058159D01*
X161371569Y-112063431D01*
X161376841Y-112069249D01*
X161381518Y-112075554D01*
X161385554Y-112082288D01*
X161388910Y-112089385D01*
X161391555Y-112096777D01*
X161393463Y-112104393D01*
X161394615Y-112112159D01*
X161395000Y-112120000D01*
X161395000Y-112280000D01*
X161394615Y-112287841D01*
X161393463Y-112295607D01*
X161391555Y-112303223D01*
X161388910Y-112310615D01*
X161385554Y-112317712D01*
X161381518Y-112324446D01*
X161376841Y-112330751D01*
X161371569Y-112336569D01*
X161365751Y-112341841D01*
X161359446Y-112346518D01*
X161352712Y-112350554D01*
X161345615Y-112353910D01*
X161338223Y-112356555D01*
X161330607Y-112358463D01*
X161322841Y-112359615D01*
X161315000Y-112360000D01*
X160205000Y-112360000D01*
X160197159Y-112359615D01*
X160189393Y-112358463D01*
X160181777Y-112356555D01*
X160174385Y-112353910D01*
X160167288Y-112350554D01*
X160160554Y-112346518D01*
X160154249Y-112341841D01*
X160148431Y-112336569D01*
X160143159Y-112330751D01*
X160138482Y-112324446D01*
X160134446Y-112317712D01*
X160131090Y-112310615D01*
X160128445Y-112303223D01*
X160126537Y-112295607D01*
X160125385Y-112287841D01*
X160125000Y-112280000D01*
X160125000Y-112120000D01*
X160125385Y-112112159D01*
X160126537Y-112104393D01*
X160128445Y-112096777D01*
X160131090Y-112089385D01*
X160134446Y-112082288D01*
X160138482Y-112075554D01*
X160143159Y-112069249D01*
X160148431Y-112063431D01*
X160154249Y-112058159D01*
X160160554Y-112053482D01*
X160167288Y-112049446D01*
X160174385Y-112046090D01*
X160181777Y-112043445D01*
X160189393Y-112041537D01*
X160197159Y-112040385D01*
X160205000Y-112040000D01*
X161315000Y-112040000D01*
X161322841Y-112040385D01*
X161322841Y-112040385D01*
G37*
D16*
X160760000Y-112200000D03*
D14*
G36*
X161322841Y-111540385D02*
X161330607Y-111541537D01*
X161338223Y-111543445D01*
X161345615Y-111546090D01*
X161352712Y-111549446D01*
X161359446Y-111553482D01*
X161365751Y-111558159D01*
X161371569Y-111563431D01*
X161376841Y-111569249D01*
X161381518Y-111575554D01*
X161385554Y-111582288D01*
X161388910Y-111589385D01*
X161391555Y-111596777D01*
X161393463Y-111604393D01*
X161394615Y-111612159D01*
X161395000Y-111620000D01*
X161395000Y-111780000D01*
X161394615Y-111787841D01*
X161393463Y-111795607D01*
X161391555Y-111803223D01*
X161388910Y-111810615D01*
X161385554Y-111817712D01*
X161381518Y-111824446D01*
X161376841Y-111830751D01*
X161371569Y-111836569D01*
X161365751Y-111841841D01*
X161359446Y-111846518D01*
X161352712Y-111850554D01*
X161345615Y-111853910D01*
X161338223Y-111856555D01*
X161330607Y-111858463D01*
X161322841Y-111859615D01*
X161315000Y-111860000D01*
X160205000Y-111860000D01*
X160197159Y-111859615D01*
X160189393Y-111858463D01*
X160181777Y-111856555D01*
X160174385Y-111853910D01*
X160167288Y-111850554D01*
X160160554Y-111846518D01*
X160154249Y-111841841D01*
X160148431Y-111836569D01*
X160143159Y-111830751D01*
X160138482Y-111824446D01*
X160134446Y-111817712D01*
X160131090Y-111810615D01*
X160128445Y-111803223D01*
X160126537Y-111795607D01*
X160125385Y-111787841D01*
X160125000Y-111780000D01*
X160125000Y-111620000D01*
X160125385Y-111612159D01*
X160126537Y-111604393D01*
X160128445Y-111596777D01*
X160131090Y-111589385D01*
X160134446Y-111582288D01*
X160138482Y-111575554D01*
X160143159Y-111569249D01*
X160148431Y-111563431D01*
X160154249Y-111558159D01*
X160160554Y-111553482D01*
X160167288Y-111549446D01*
X160174385Y-111546090D01*
X160181777Y-111543445D01*
X160189393Y-111541537D01*
X160197159Y-111540385D01*
X160205000Y-111540000D01*
X161315000Y-111540000D01*
X161322841Y-111540385D01*
X161322841Y-111540385D01*
G37*
D16*
X160760000Y-111700000D03*
D14*
G36*
X161322841Y-108040385D02*
X161330607Y-108041537D01*
X161338223Y-108043445D01*
X161345615Y-108046090D01*
X161352712Y-108049446D01*
X161359446Y-108053482D01*
X161365751Y-108058159D01*
X161371569Y-108063431D01*
X161376841Y-108069249D01*
X161381518Y-108075554D01*
X161385554Y-108082288D01*
X161388910Y-108089385D01*
X161391555Y-108096777D01*
X161393463Y-108104393D01*
X161394615Y-108112159D01*
X161395000Y-108120000D01*
X161395000Y-108280000D01*
X161394615Y-108287841D01*
X161393463Y-108295607D01*
X161391555Y-108303223D01*
X161388910Y-108310615D01*
X161385554Y-108317712D01*
X161381518Y-108324446D01*
X161376841Y-108330751D01*
X161371569Y-108336569D01*
X161365751Y-108341841D01*
X161359446Y-108346518D01*
X161352712Y-108350554D01*
X161345615Y-108353910D01*
X161338223Y-108356555D01*
X161330607Y-108358463D01*
X161322841Y-108359615D01*
X161315000Y-108360000D01*
X160205000Y-108360000D01*
X160197159Y-108359615D01*
X160189393Y-108358463D01*
X160181777Y-108356555D01*
X160174385Y-108353910D01*
X160167288Y-108350554D01*
X160160554Y-108346518D01*
X160154249Y-108341841D01*
X160148431Y-108336569D01*
X160143159Y-108330751D01*
X160138482Y-108324446D01*
X160134446Y-108317712D01*
X160131090Y-108310615D01*
X160128445Y-108303223D01*
X160126537Y-108295607D01*
X160125385Y-108287841D01*
X160125000Y-108280000D01*
X160125000Y-108120000D01*
X160125385Y-108112159D01*
X160126537Y-108104393D01*
X160128445Y-108096777D01*
X160131090Y-108089385D01*
X160134446Y-108082288D01*
X160138482Y-108075554D01*
X160143159Y-108069249D01*
X160148431Y-108063431D01*
X160154249Y-108058159D01*
X160160554Y-108053482D01*
X160167288Y-108049446D01*
X160174385Y-108046090D01*
X160181777Y-108043445D01*
X160189393Y-108041537D01*
X160197159Y-108040385D01*
X160205000Y-108040000D01*
X161315000Y-108040000D01*
X161322841Y-108040385D01*
X161322841Y-108040385D01*
G37*
D16*
X160760000Y-108200000D03*
D14*
G36*
X161322841Y-110040385D02*
X161330607Y-110041537D01*
X161338223Y-110043445D01*
X161345615Y-110046090D01*
X161352712Y-110049446D01*
X161359446Y-110053482D01*
X161365751Y-110058159D01*
X161371569Y-110063431D01*
X161376841Y-110069249D01*
X161381518Y-110075554D01*
X161385554Y-110082288D01*
X161388910Y-110089385D01*
X161391555Y-110096777D01*
X161393463Y-110104393D01*
X161394615Y-110112159D01*
X161395000Y-110120000D01*
X161395000Y-110280000D01*
X161394615Y-110287841D01*
X161393463Y-110295607D01*
X161391555Y-110303223D01*
X161388910Y-110310615D01*
X161385554Y-110317712D01*
X161381518Y-110324446D01*
X161376841Y-110330751D01*
X161371569Y-110336569D01*
X161365751Y-110341841D01*
X161359446Y-110346518D01*
X161352712Y-110350554D01*
X161345615Y-110353910D01*
X161338223Y-110356555D01*
X161330607Y-110358463D01*
X161322841Y-110359615D01*
X161315000Y-110360000D01*
X160205000Y-110360000D01*
X160197159Y-110359615D01*
X160189393Y-110358463D01*
X160181777Y-110356555D01*
X160174385Y-110353910D01*
X160167288Y-110350554D01*
X160160554Y-110346518D01*
X160154249Y-110341841D01*
X160148431Y-110336569D01*
X160143159Y-110330751D01*
X160138482Y-110324446D01*
X160134446Y-110317712D01*
X160131090Y-110310615D01*
X160128445Y-110303223D01*
X160126537Y-110295607D01*
X160125385Y-110287841D01*
X160125000Y-110280000D01*
X160125000Y-110120000D01*
X160125385Y-110112159D01*
X160126537Y-110104393D01*
X160128445Y-110096777D01*
X160131090Y-110089385D01*
X160134446Y-110082288D01*
X160138482Y-110075554D01*
X160143159Y-110069249D01*
X160148431Y-110063431D01*
X160154249Y-110058159D01*
X160160554Y-110053482D01*
X160167288Y-110049446D01*
X160174385Y-110046090D01*
X160181777Y-110043445D01*
X160189393Y-110041537D01*
X160197159Y-110040385D01*
X160205000Y-110040000D01*
X161315000Y-110040000D01*
X161322841Y-110040385D01*
X161322841Y-110040385D01*
G37*
D16*
X160760000Y-110200000D03*
D14*
G36*
X161322841Y-109040385D02*
X161330607Y-109041537D01*
X161338223Y-109043445D01*
X161345615Y-109046090D01*
X161352712Y-109049446D01*
X161359446Y-109053482D01*
X161365751Y-109058159D01*
X161371569Y-109063431D01*
X161376841Y-109069249D01*
X161381518Y-109075554D01*
X161385554Y-109082288D01*
X161388910Y-109089385D01*
X161391555Y-109096777D01*
X161393463Y-109104393D01*
X161394615Y-109112159D01*
X161395000Y-109120000D01*
X161395000Y-109280000D01*
X161394615Y-109287841D01*
X161393463Y-109295607D01*
X161391555Y-109303223D01*
X161388910Y-109310615D01*
X161385554Y-109317712D01*
X161381518Y-109324446D01*
X161376841Y-109330751D01*
X161371569Y-109336569D01*
X161365751Y-109341841D01*
X161359446Y-109346518D01*
X161352712Y-109350554D01*
X161345615Y-109353910D01*
X161338223Y-109356555D01*
X161330607Y-109358463D01*
X161322841Y-109359615D01*
X161315000Y-109360000D01*
X160205000Y-109360000D01*
X160197159Y-109359615D01*
X160189393Y-109358463D01*
X160181777Y-109356555D01*
X160174385Y-109353910D01*
X160167288Y-109350554D01*
X160160554Y-109346518D01*
X160154249Y-109341841D01*
X160148431Y-109336569D01*
X160143159Y-109330751D01*
X160138482Y-109324446D01*
X160134446Y-109317712D01*
X160131090Y-109310615D01*
X160128445Y-109303223D01*
X160126537Y-109295607D01*
X160125385Y-109287841D01*
X160125000Y-109280000D01*
X160125000Y-109120000D01*
X160125385Y-109112159D01*
X160126537Y-109104393D01*
X160128445Y-109096777D01*
X160131090Y-109089385D01*
X160134446Y-109082288D01*
X160138482Y-109075554D01*
X160143159Y-109069249D01*
X160148431Y-109063431D01*
X160154249Y-109058159D01*
X160160554Y-109053482D01*
X160167288Y-109049446D01*
X160174385Y-109046090D01*
X160181777Y-109043445D01*
X160189393Y-109041537D01*
X160197159Y-109040385D01*
X160205000Y-109040000D01*
X161315000Y-109040000D01*
X161322841Y-109040385D01*
X161322841Y-109040385D01*
G37*
D16*
X160760000Y-109200000D03*
D14*
G36*
X161322841Y-112540385D02*
X161330607Y-112541537D01*
X161338223Y-112543445D01*
X161345615Y-112546090D01*
X161352712Y-112549446D01*
X161359446Y-112553482D01*
X161365751Y-112558159D01*
X161371569Y-112563431D01*
X161376841Y-112569249D01*
X161381518Y-112575554D01*
X161385554Y-112582288D01*
X161388910Y-112589385D01*
X161391555Y-112596777D01*
X161393463Y-112604393D01*
X161394615Y-112612159D01*
X161395000Y-112620000D01*
X161395000Y-112780000D01*
X161394615Y-112787841D01*
X161393463Y-112795607D01*
X161391555Y-112803223D01*
X161388910Y-112810615D01*
X161385554Y-112817712D01*
X161381518Y-112824446D01*
X161376841Y-112830751D01*
X161371569Y-112836569D01*
X161365751Y-112841841D01*
X161359446Y-112846518D01*
X161352712Y-112850554D01*
X161345615Y-112853910D01*
X161338223Y-112856555D01*
X161330607Y-112858463D01*
X161322841Y-112859615D01*
X161315000Y-112860000D01*
X160205000Y-112860000D01*
X160197159Y-112859615D01*
X160189393Y-112858463D01*
X160181777Y-112856555D01*
X160174385Y-112853910D01*
X160167288Y-112850554D01*
X160160554Y-112846518D01*
X160154249Y-112841841D01*
X160148431Y-112836569D01*
X160143159Y-112830751D01*
X160138482Y-112824446D01*
X160134446Y-112817712D01*
X160131090Y-112810615D01*
X160128445Y-112803223D01*
X160126537Y-112795607D01*
X160125385Y-112787841D01*
X160125000Y-112780000D01*
X160125000Y-112620000D01*
X160125385Y-112612159D01*
X160126537Y-112604393D01*
X160128445Y-112596777D01*
X160131090Y-112589385D01*
X160134446Y-112582288D01*
X160138482Y-112575554D01*
X160143159Y-112569249D01*
X160148431Y-112563431D01*
X160154249Y-112558159D01*
X160160554Y-112553482D01*
X160167288Y-112549446D01*
X160174385Y-112546090D01*
X160181777Y-112543445D01*
X160189393Y-112541537D01*
X160197159Y-112540385D01*
X160205000Y-112540000D01*
X161315000Y-112540000D01*
X161322841Y-112540385D01*
X161322841Y-112540385D01*
G37*
D16*
X160760000Y-112700000D03*
D14*
G36*
X161322841Y-111040385D02*
X161330607Y-111041537D01*
X161338223Y-111043445D01*
X161345615Y-111046090D01*
X161352712Y-111049446D01*
X161359446Y-111053482D01*
X161365751Y-111058159D01*
X161371569Y-111063431D01*
X161376841Y-111069249D01*
X161381518Y-111075554D01*
X161385554Y-111082288D01*
X161388910Y-111089385D01*
X161391555Y-111096777D01*
X161393463Y-111104393D01*
X161394615Y-111112159D01*
X161395000Y-111120000D01*
X161395000Y-111280000D01*
X161394615Y-111287841D01*
X161393463Y-111295607D01*
X161391555Y-111303223D01*
X161388910Y-111310615D01*
X161385554Y-111317712D01*
X161381518Y-111324446D01*
X161376841Y-111330751D01*
X161371569Y-111336569D01*
X161365751Y-111341841D01*
X161359446Y-111346518D01*
X161352712Y-111350554D01*
X161345615Y-111353910D01*
X161338223Y-111356555D01*
X161330607Y-111358463D01*
X161322841Y-111359615D01*
X161315000Y-111360000D01*
X160205000Y-111360000D01*
X160197159Y-111359615D01*
X160189393Y-111358463D01*
X160181777Y-111356555D01*
X160174385Y-111353910D01*
X160167288Y-111350554D01*
X160160554Y-111346518D01*
X160154249Y-111341841D01*
X160148431Y-111336569D01*
X160143159Y-111330751D01*
X160138482Y-111324446D01*
X160134446Y-111317712D01*
X160131090Y-111310615D01*
X160128445Y-111303223D01*
X160126537Y-111295607D01*
X160125385Y-111287841D01*
X160125000Y-111280000D01*
X160125000Y-111120000D01*
X160125385Y-111112159D01*
X160126537Y-111104393D01*
X160128445Y-111096777D01*
X160131090Y-111089385D01*
X160134446Y-111082288D01*
X160138482Y-111075554D01*
X160143159Y-111069249D01*
X160148431Y-111063431D01*
X160154249Y-111058159D01*
X160160554Y-111053482D01*
X160167288Y-111049446D01*
X160174385Y-111046090D01*
X160181777Y-111043445D01*
X160189393Y-111041537D01*
X160197159Y-111040385D01*
X160205000Y-111040000D01*
X161315000Y-111040000D01*
X161322841Y-111040385D01*
X161322841Y-111040385D01*
G37*
D16*
X160760000Y-111200000D03*
D14*
G36*
X161322841Y-108540385D02*
X161330607Y-108541537D01*
X161338223Y-108543445D01*
X161345615Y-108546090D01*
X161352712Y-108549446D01*
X161359446Y-108553482D01*
X161365751Y-108558159D01*
X161371569Y-108563431D01*
X161376841Y-108569249D01*
X161381518Y-108575554D01*
X161385554Y-108582288D01*
X161388910Y-108589385D01*
X161391555Y-108596777D01*
X161393463Y-108604393D01*
X161394615Y-108612159D01*
X161395000Y-108620000D01*
X161395000Y-108780000D01*
X161394615Y-108787841D01*
X161393463Y-108795607D01*
X161391555Y-108803223D01*
X161388910Y-108810615D01*
X161385554Y-108817712D01*
X161381518Y-108824446D01*
X161376841Y-108830751D01*
X161371569Y-108836569D01*
X161365751Y-108841841D01*
X161359446Y-108846518D01*
X161352712Y-108850554D01*
X161345615Y-108853910D01*
X161338223Y-108856555D01*
X161330607Y-108858463D01*
X161322841Y-108859615D01*
X161315000Y-108860000D01*
X160205000Y-108860000D01*
X160197159Y-108859615D01*
X160189393Y-108858463D01*
X160181777Y-108856555D01*
X160174385Y-108853910D01*
X160167288Y-108850554D01*
X160160554Y-108846518D01*
X160154249Y-108841841D01*
X160148431Y-108836569D01*
X160143159Y-108830751D01*
X160138482Y-108824446D01*
X160134446Y-108817712D01*
X160131090Y-108810615D01*
X160128445Y-108803223D01*
X160126537Y-108795607D01*
X160125385Y-108787841D01*
X160125000Y-108780000D01*
X160125000Y-108620000D01*
X160125385Y-108612159D01*
X160126537Y-108604393D01*
X160128445Y-108596777D01*
X160131090Y-108589385D01*
X160134446Y-108582288D01*
X160138482Y-108575554D01*
X160143159Y-108569249D01*
X160148431Y-108563431D01*
X160154249Y-108558159D01*
X160160554Y-108553482D01*
X160167288Y-108549446D01*
X160174385Y-108546090D01*
X160181777Y-108543445D01*
X160189393Y-108541537D01*
X160197159Y-108540385D01*
X160205000Y-108540000D01*
X161315000Y-108540000D01*
X161322841Y-108540385D01*
X161322841Y-108540385D01*
G37*
D16*
X160760000Y-108700000D03*
D14*
G36*
X161322841Y-115540385D02*
X161330607Y-115541537D01*
X161338223Y-115543445D01*
X161345615Y-115546090D01*
X161352712Y-115549446D01*
X161359446Y-115553482D01*
X161365751Y-115558159D01*
X161371569Y-115563431D01*
X161376841Y-115569249D01*
X161381518Y-115575554D01*
X161385554Y-115582288D01*
X161388910Y-115589385D01*
X161391555Y-115596777D01*
X161393463Y-115604393D01*
X161394615Y-115612159D01*
X161395000Y-115620000D01*
X161395000Y-115780000D01*
X161394615Y-115787841D01*
X161393463Y-115795607D01*
X161391555Y-115803223D01*
X161388910Y-115810615D01*
X161385554Y-115817712D01*
X161381518Y-115824446D01*
X161376841Y-115830751D01*
X161371569Y-115836569D01*
X161365751Y-115841841D01*
X161359446Y-115846518D01*
X161352712Y-115850554D01*
X161345615Y-115853910D01*
X161338223Y-115856555D01*
X161330607Y-115858463D01*
X161322841Y-115859615D01*
X161315000Y-115860000D01*
X160205000Y-115860000D01*
X160197159Y-115859615D01*
X160189393Y-115858463D01*
X160181777Y-115856555D01*
X160174385Y-115853910D01*
X160167288Y-115850554D01*
X160160554Y-115846518D01*
X160154249Y-115841841D01*
X160148431Y-115836569D01*
X160143159Y-115830751D01*
X160138482Y-115824446D01*
X160134446Y-115817712D01*
X160131090Y-115810615D01*
X160128445Y-115803223D01*
X160126537Y-115795607D01*
X160125385Y-115787841D01*
X160125000Y-115780000D01*
X160125000Y-115620000D01*
X160125385Y-115612159D01*
X160126537Y-115604393D01*
X160128445Y-115596777D01*
X160131090Y-115589385D01*
X160134446Y-115582288D01*
X160138482Y-115575554D01*
X160143159Y-115569249D01*
X160148431Y-115563431D01*
X160154249Y-115558159D01*
X160160554Y-115553482D01*
X160167288Y-115549446D01*
X160174385Y-115546090D01*
X160181777Y-115543445D01*
X160189393Y-115541537D01*
X160197159Y-115540385D01*
X160205000Y-115540000D01*
X161315000Y-115540000D01*
X161322841Y-115540385D01*
X161322841Y-115540385D01*
G37*
D16*
X160760000Y-115700000D03*
D14*
G36*
X161322841Y-115040385D02*
X161330607Y-115041537D01*
X161338223Y-115043445D01*
X161345615Y-115046090D01*
X161352712Y-115049446D01*
X161359446Y-115053482D01*
X161365751Y-115058159D01*
X161371569Y-115063431D01*
X161376841Y-115069249D01*
X161381518Y-115075554D01*
X161385554Y-115082288D01*
X161388910Y-115089385D01*
X161391555Y-115096777D01*
X161393463Y-115104393D01*
X161394615Y-115112159D01*
X161395000Y-115120000D01*
X161395000Y-115280000D01*
X161394615Y-115287841D01*
X161393463Y-115295607D01*
X161391555Y-115303223D01*
X161388910Y-115310615D01*
X161385554Y-115317712D01*
X161381518Y-115324446D01*
X161376841Y-115330751D01*
X161371569Y-115336569D01*
X161365751Y-115341841D01*
X161359446Y-115346518D01*
X161352712Y-115350554D01*
X161345615Y-115353910D01*
X161338223Y-115356555D01*
X161330607Y-115358463D01*
X161322841Y-115359615D01*
X161315000Y-115360000D01*
X160205000Y-115360000D01*
X160197159Y-115359615D01*
X160189393Y-115358463D01*
X160181777Y-115356555D01*
X160174385Y-115353910D01*
X160167288Y-115350554D01*
X160160554Y-115346518D01*
X160154249Y-115341841D01*
X160148431Y-115336569D01*
X160143159Y-115330751D01*
X160138482Y-115324446D01*
X160134446Y-115317712D01*
X160131090Y-115310615D01*
X160128445Y-115303223D01*
X160126537Y-115295607D01*
X160125385Y-115287841D01*
X160125000Y-115280000D01*
X160125000Y-115120000D01*
X160125385Y-115112159D01*
X160126537Y-115104393D01*
X160128445Y-115096777D01*
X160131090Y-115089385D01*
X160134446Y-115082288D01*
X160138482Y-115075554D01*
X160143159Y-115069249D01*
X160148431Y-115063431D01*
X160154249Y-115058159D01*
X160160554Y-115053482D01*
X160167288Y-115049446D01*
X160174385Y-115046090D01*
X160181777Y-115043445D01*
X160189393Y-115041537D01*
X160197159Y-115040385D01*
X160205000Y-115040000D01*
X161315000Y-115040000D01*
X161322841Y-115040385D01*
X161322841Y-115040385D01*
G37*
D16*
X160760000Y-115200000D03*
D14*
G36*
X161322841Y-110540385D02*
X161330607Y-110541537D01*
X161338223Y-110543445D01*
X161345615Y-110546090D01*
X161352712Y-110549446D01*
X161359446Y-110553482D01*
X161365751Y-110558159D01*
X161371569Y-110563431D01*
X161376841Y-110569249D01*
X161381518Y-110575554D01*
X161385554Y-110582288D01*
X161388910Y-110589385D01*
X161391555Y-110596777D01*
X161393463Y-110604393D01*
X161394615Y-110612159D01*
X161395000Y-110620000D01*
X161395000Y-110780000D01*
X161394615Y-110787841D01*
X161393463Y-110795607D01*
X161391555Y-110803223D01*
X161388910Y-110810615D01*
X161385554Y-110817712D01*
X161381518Y-110824446D01*
X161376841Y-110830751D01*
X161371569Y-110836569D01*
X161365751Y-110841841D01*
X161359446Y-110846518D01*
X161352712Y-110850554D01*
X161345615Y-110853910D01*
X161338223Y-110856555D01*
X161330607Y-110858463D01*
X161322841Y-110859615D01*
X161315000Y-110860000D01*
X160205000Y-110860000D01*
X160197159Y-110859615D01*
X160189393Y-110858463D01*
X160181777Y-110856555D01*
X160174385Y-110853910D01*
X160167288Y-110850554D01*
X160160554Y-110846518D01*
X160154249Y-110841841D01*
X160148431Y-110836569D01*
X160143159Y-110830751D01*
X160138482Y-110824446D01*
X160134446Y-110817712D01*
X160131090Y-110810615D01*
X160128445Y-110803223D01*
X160126537Y-110795607D01*
X160125385Y-110787841D01*
X160125000Y-110780000D01*
X160125000Y-110620000D01*
X160125385Y-110612159D01*
X160126537Y-110604393D01*
X160128445Y-110596777D01*
X160131090Y-110589385D01*
X160134446Y-110582288D01*
X160138482Y-110575554D01*
X160143159Y-110569249D01*
X160148431Y-110563431D01*
X160154249Y-110558159D01*
X160160554Y-110553482D01*
X160167288Y-110549446D01*
X160174385Y-110546090D01*
X160181777Y-110543445D01*
X160189393Y-110541537D01*
X160197159Y-110540385D01*
X160205000Y-110540000D01*
X161315000Y-110540000D01*
X161322841Y-110540385D01*
X161322841Y-110540385D01*
G37*
D16*
X160760000Y-110700000D03*
D14*
G36*
X161322841Y-113540385D02*
X161330607Y-113541537D01*
X161338223Y-113543445D01*
X161345615Y-113546090D01*
X161352712Y-113549446D01*
X161359446Y-113553482D01*
X161365751Y-113558159D01*
X161371569Y-113563431D01*
X161376841Y-113569249D01*
X161381518Y-113575554D01*
X161385554Y-113582288D01*
X161388910Y-113589385D01*
X161391555Y-113596777D01*
X161393463Y-113604393D01*
X161394615Y-113612159D01*
X161395000Y-113620000D01*
X161395000Y-113780000D01*
X161394615Y-113787841D01*
X161393463Y-113795607D01*
X161391555Y-113803223D01*
X161388910Y-113810615D01*
X161385554Y-113817712D01*
X161381518Y-113824446D01*
X161376841Y-113830751D01*
X161371569Y-113836569D01*
X161365751Y-113841841D01*
X161359446Y-113846518D01*
X161352712Y-113850554D01*
X161345615Y-113853910D01*
X161338223Y-113856555D01*
X161330607Y-113858463D01*
X161322841Y-113859615D01*
X161315000Y-113860000D01*
X160205000Y-113860000D01*
X160197159Y-113859615D01*
X160189393Y-113858463D01*
X160181777Y-113856555D01*
X160174385Y-113853910D01*
X160167288Y-113850554D01*
X160160554Y-113846518D01*
X160154249Y-113841841D01*
X160148431Y-113836569D01*
X160143159Y-113830751D01*
X160138482Y-113824446D01*
X160134446Y-113817712D01*
X160131090Y-113810615D01*
X160128445Y-113803223D01*
X160126537Y-113795607D01*
X160125385Y-113787841D01*
X160125000Y-113780000D01*
X160125000Y-113620000D01*
X160125385Y-113612159D01*
X160126537Y-113604393D01*
X160128445Y-113596777D01*
X160131090Y-113589385D01*
X160134446Y-113582288D01*
X160138482Y-113575554D01*
X160143159Y-113569249D01*
X160148431Y-113563431D01*
X160154249Y-113558159D01*
X160160554Y-113553482D01*
X160167288Y-113549446D01*
X160174385Y-113546090D01*
X160181777Y-113543445D01*
X160189393Y-113541537D01*
X160197159Y-113540385D01*
X160205000Y-113540000D01*
X161315000Y-113540000D01*
X161322841Y-113540385D01*
X161322841Y-113540385D01*
G37*
D16*
X160760000Y-113700000D03*
D14*
G36*
X161322841Y-113040385D02*
X161330607Y-113041537D01*
X161338223Y-113043445D01*
X161345615Y-113046090D01*
X161352712Y-113049446D01*
X161359446Y-113053482D01*
X161365751Y-113058159D01*
X161371569Y-113063431D01*
X161376841Y-113069249D01*
X161381518Y-113075554D01*
X161385554Y-113082288D01*
X161388910Y-113089385D01*
X161391555Y-113096777D01*
X161393463Y-113104393D01*
X161394615Y-113112159D01*
X161395000Y-113120000D01*
X161395000Y-113280000D01*
X161394615Y-113287841D01*
X161393463Y-113295607D01*
X161391555Y-113303223D01*
X161388910Y-113310615D01*
X161385554Y-113317712D01*
X161381518Y-113324446D01*
X161376841Y-113330751D01*
X161371569Y-113336569D01*
X161365751Y-113341841D01*
X161359446Y-113346518D01*
X161352712Y-113350554D01*
X161345615Y-113353910D01*
X161338223Y-113356555D01*
X161330607Y-113358463D01*
X161322841Y-113359615D01*
X161315000Y-113360000D01*
X160205000Y-113360000D01*
X160197159Y-113359615D01*
X160189393Y-113358463D01*
X160181777Y-113356555D01*
X160174385Y-113353910D01*
X160167288Y-113350554D01*
X160160554Y-113346518D01*
X160154249Y-113341841D01*
X160148431Y-113336569D01*
X160143159Y-113330751D01*
X160138482Y-113324446D01*
X160134446Y-113317712D01*
X160131090Y-113310615D01*
X160128445Y-113303223D01*
X160126537Y-113295607D01*
X160125385Y-113287841D01*
X160125000Y-113280000D01*
X160125000Y-113120000D01*
X160125385Y-113112159D01*
X160126537Y-113104393D01*
X160128445Y-113096777D01*
X160131090Y-113089385D01*
X160134446Y-113082288D01*
X160138482Y-113075554D01*
X160143159Y-113069249D01*
X160148431Y-113063431D01*
X160154249Y-113058159D01*
X160160554Y-113053482D01*
X160167288Y-113049446D01*
X160174385Y-113046090D01*
X160181777Y-113043445D01*
X160189393Y-113041537D01*
X160197159Y-113040385D01*
X160205000Y-113040000D01*
X161315000Y-113040000D01*
X161322841Y-113040385D01*
X161322841Y-113040385D01*
G37*
D16*
X160760000Y-113200000D03*
D14*
G36*
X161322841Y-114540385D02*
X161330607Y-114541537D01*
X161338223Y-114543445D01*
X161345615Y-114546090D01*
X161352712Y-114549446D01*
X161359446Y-114553482D01*
X161365751Y-114558159D01*
X161371569Y-114563431D01*
X161376841Y-114569249D01*
X161381518Y-114575554D01*
X161385554Y-114582288D01*
X161388910Y-114589385D01*
X161391555Y-114596777D01*
X161393463Y-114604393D01*
X161394615Y-114612159D01*
X161395000Y-114620000D01*
X161395000Y-114780000D01*
X161394615Y-114787841D01*
X161393463Y-114795607D01*
X161391555Y-114803223D01*
X161388910Y-114810615D01*
X161385554Y-114817712D01*
X161381518Y-114824446D01*
X161376841Y-114830751D01*
X161371569Y-114836569D01*
X161365751Y-114841841D01*
X161359446Y-114846518D01*
X161352712Y-114850554D01*
X161345615Y-114853910D01*
X161338223Y-114856555D01*
X161330607Y-114858463D01*
X161322841Y-114859615D01*
X161315000Y-114860000D01*
X160205000Y-114860000D01*
X160197159Y-114859615D01*
X160189393Y-114858463D01*
X160181777Y-114856555D01*
X160174385Y-114853910D01*
X160167288Y-114850554D01*
X160160554Y-114846518D01*
X160154249Y-114841841D01*
X160148431Y-114836569D01*
X160143159Y-114830751D01*
X160138482Y-114824446D01*
X160134446Y-114817712D01*
X160131090Y-114810615D01*
X160128445Y-114803223D01*
X160126537Y-114795607D01*
X160125385Y-114787841D01*
X160125000Y-114780000D01*
X160125000Y-114620000D01*
X160125385Y-114612159D01*
X160126537Y-114604393D01*
X160128445Y-114596777D01*
X160131090Y-114589385D01*
X160134446Y-114582288D01*
X160138482Y-114575554D01*
X160143159Y-114569249D01*
X160148431Y-114563431D01*
X160154249Y-114558159D01*
X160160554Y-114553482D01*
X160167288Y-114549446D01*
X160174385Y-114546090D01*
X160181777Y-114543445D01*
X160189393Y-114541537D01*
X160197159Y-114540385D01*
X160205000Y-114540000D01*
X161315000Y-114540000D01*
X161322841Y-114540385D01*
X161322841Y-114540385D01*
G37*
D16*
X160760000Y-114700000D03*
D14*
G36*
X161322841Y-114040385D02*
X161330607Y-114041537D01*
X161338223Y-114043445D01*
X161345615Y-114046090D01*
X161352712Y-114049446D01*
X161359446Y-114053482D01*
X161365751Y-114058159D01*
X161371569Y-114063431D01*
X161376841Y-114069249D01*
X161381518Y-114075554D01*
X161385554Y-114082288D01*
X161388910Y-114089385D01*
X161391555Y-114096777D01*
X161393463Y-114104393D01*
X161394615Y-114112159D01*
X161395000Y-114120000D01*
X161395000Y-114280000D01*
X161394615Y-114287841D01*
X161393463Y-114295607D01*
X161391555Y-114303223D01*
X161388910Y-114310615D01*
X161385554Y-114317712D01*
X161381518Y-114324446D01*
X161376841Y-114330751D01*
X161371569Y-114336569D01*
X161365751Y-114341841D01*
X161359446Y-114346518D01*
X161352712Y-114350554D01*
X161345615Y-114353910D01*
X161338223Y-114356555D01*
X161330607Y-114358463D01*
X161322841Y-114359615D01*
X161315000Y-114360000D01*
X160205000Y-114360000D01*
X160197159Y-114359615D01*
X160189393Y-114358463D01*
X160181777Y-114356555D01*
X160174385Y-114353910D01*
X160167288Y-114350554D01*
X160160554Y-114346518D01*
X160154249Y-114341841D01*
X160148431Y-114336569D01*
X160143159Y-114330751D01*
X160138482Y-114324446D01*
X160134446Y-114317712D01*
X160131090Y-114310615D01*
X160128445Y-114303223D01*
X160126537Y-114295607D01*
X160125385Y-114287841D01*
X160125000Y-114280000D01*
X160125000Y-114120000D01*
X160125385Y-114112159D01*
X160126537Y-114104393D01*
X160128445Y-114096777D01*
X160131090Y-114089385D01*
X160134446Y-114082288D01*
X160138482Y-114075554D01*
X160143159Y-114069249D01*
X160148431Y-114063431D01*
X160154249Y-114058159D01*
X160160554Y-114053482D01*
X160167288Y-114049446D01*
X160174385Y-114046090D01*
X160181777Y-114043445D01*
X160189393Y-114041537D01*
X160197159Y-114040385D01*
X160205000Y-114040000D01*
X161315000Y-114040000D01*
X161322841Y-114040385D01*
X161322841Y-114040385D01*
G37*
D16*
X160760000Y-114200000D03*
D14*
G36*
X161322841Y-109540385D02*
X161330607Y-109541537D01*
X161338223Y-109543445D01*
X161345615Y-109546090D01*
X161352712Y-109549446D01*
X161359446Y-109553482D01*
X161365751Y-109558159D01*
X161371569Y-109563431D01*
X161376841Y-109569249D01*
X161381518Y-109575554D01*
X161385554Y-109582288D01*
X161388910Y-109589385D01*
X161391555Y-109596777D01*
X161393463Y-109604393D01*
X161394615Y-109612159D01*
X161395000Y-109620000D01*
X161395000Y-109780000D01*
X161394615Y-109787841D01*
X161393463Y-109795607D01*
X161391555Y-109803223D01*
X161388910Y-109810615D01*
X161385554Y-109817712D01*
X161381518Y-109824446D01*
X161376841Y-109830751D01*
X161371569Y-109836569D01*
X161365751Y-109841841D01*
X161359446Y-109846518D01*
X161352712Y-109850554D01*
X161345615Y-109853910D01*
X161338223Y-109856555D01*
X161330607Y-109858463D01*
X161322841Y-109859615D01*
X161315000Y-109860000D01*
X160205000Y-109860000D01*
X160197159Y-109859615D01*
X160189393Y-109858463D01*
X160181777Y-109856555D01*
X160174385Y-109853910D01*
X160167288Y-109850554D01*
X160160554Y-109846518D01*
X160154249Y-109841841D01*
X160148431Y-109836569D01*
X160143159Y-109830751D01*
X160138482Y-109824446D01*
X160134446Y-109817712D01*
X160131090Y-109810615D01*
X160128445Y-109803223D01*
X160126537Y-109795607D01*
X160125385Y-109787841D01*
X160125000Y-109780000D01*
X160125000Y-109620000D01*
X160125385Y-109612159D01*
X160126537Y-109604393D01*
X160128445Y-109596777D01*
X160131090Y-109589385D01*
X160134446Y-109582288D01*
X160138482Y-109575554D01*
X160143159Y-109569249D01*
X160148431Y-109563431D01*
X160154249Y-109558159D01*
X160160554Y-109553482D01*
X160167288Y-109549446D01*
X160174385Y-109546090D01*
X160181777Y-109543445D01*
X160189393Y-109541537D01*
X160197159Y-109540385D01*
X160205000Y-109540000D01*
X161315000Y-109540000D01*
X161322841Y-109540385D01*
X161322841Y-109540385D01*
G37*
D16*
X160760000Y-109700000D03*
D14*
G36*
X161322841Y-116040385D02*
X161330607Y-116041537D01*
X161338223Y-116043445D01*
X161345615Y-116046090D01*
X161352712Y-116049446D01*
X161359446Y-116053482D01*
X161365751Y-116058159D01*
X161371569Y-116063431D01*
X161376841Y-116069249D01*
X161381518Y-116075554D01*
X161385554Y-116082288D01*
X161388910Y-116089385D01*
X161391555Y-116096777D01*
X161393463Y-116104393D01*
X161394615Y-116112159D01*
X161395000Y-116120000D01*
X161395000Y-116280000D01*
X161394615Y-116287841D01*
X161393463Y-116295607D01*
X161391555Y-116303223D01*
X161388910Y-116310615D01*
X161385554Y-116317712D01*
X161381518Y-116324446D01*
X161376841Y-116330751D01*
X161371569Y-116336569D01*
X161365751Y-116341841D01*
X161359446Y-116346518D01*
X161352712Y-116350554D01*
X161345615Y-116353910D01*
X161338223Y-116356555D01*
X161330607Y-116358463D01*
X161322841Y-116359615D01*
X161315000Y-116360000D01*
X160205000Y-116360000D01*
X160197159Y-116359615D01*
X160189393Y-116358463D01*
X160181777Y-116356555D01*
X160174385Y-116353910D01*
X160167288Y-116350554D01*
X160160554Y-116346518D01*
X160154249Y-116341841D01*
X160148431Y-116336569D01*
X160143159Y-116330751D01*
X160138482Y-116324446D01*
X160134446Y-116317712D01*
X160131090Y-116310615D01*
X160128445Y-116303223D01*
X160126537Y-116295607D01*
X160125385Y-116287841D01*
X160125000Y-116280000D01*
X160125000Y-116120000D01*
X160125385Y-116112159D01*
X160126537Y-116104393D01*
X160128445Y-116096777D01*
X160131090Y-116089385D01*
X160134446Y-116082288D01*
X160138482Y-116075554D01*
X160143159Y-116069249D01*
X160148431Y-116063431D01*
X160154249Y-116058159D01*
X160160554Y-116053482D01*
X160167288Y-116049446D01*
X160174385Y-116046090D01*
X160181777Y-116043445D01*
X160189393Y-116041537D01*
X160197159Y-116040385D01*
X160205000Y-116040000D01*
X161315000Y-116040000D01*
X161322841Y-116040385D01*
X161322841Y-116040385D01*
G37*
D16*
X160760000Y-116200000D03*
D14*
G36*
X161322841Y-116540385D02*
X161330607Y-116541537D01*
X161338223Y-116543445D01*
X161345615Y-116546090D01*
X161352712Y-116549446D01*
X161359446Y-116553482D01*
X161365751Y-116558159D01*
X161371569Y-116563431D01*
X161376841Y-116569249D01*
X161381518Y-116575554D01*
X161385554Y-116582288D01*
X161388910Y-116589385D01*
X161391555Y-116596777D01*
X161393463Y-116604393D01*
X161394615Y-116612159D01*
X161395000Y-116620000D01*
X161395000Y-116780000D01*
X161394615Y-116787841D01*
X161393463Y-116795607D01*
X161391555Y-116803223D01*
X161388910Y-116810615D01*
X161385554Y-116817712D01*
X161381518Y-116824446D01*
X161376841Y-116830751D01*
X161371569Y-116836569D01*
X161365751Y-116841841D01*
X161359446Y-116846518D01*
X161352712Y-116850554D01*
X161345615Y-116853910D01*
X161338223Y-116856555D01*
X161330607Y-116858463D01*
X161322841Y-116859615D01*
X161315000Y-116860000D01*
X160205000Y-116860000D01*
X160197159Y-116859615D01*
X160189393Y-116858463D01*
X160181777Y-116856555D01*
X160174385Y-116853910D01*
X160167288Y-116850554D01*
X160160554Y-116846518D01*
X160154249Y-116841841D01*
X160148431Y-116836569D01*
X160143159Y-116830751D01*
X160138482Y-116824446D01*
X160134446Y-116817712D01*
X160131090Y-116810615D01*
X160128445Y-116803223D01*
X160126537Y-116795607D01*
X160125385Y-116787841D01*
X160125000Y-116780000D01*
X160125000Y-116620000D01*
X160125385Y-116612159D01*
X160126537Y-116604393D01*
X160128445Y-116596777D01*
X160131090Y-116589385D01*
X160134446Y-116582288D01*
X160138482Y-116575554D01*
X160143159Y-116569249D01*
X160148431Y-116563431D01*
X160154249Y-116558159D01*
X160160554Y-116553482D01*
X160167288Y-116549446D01*
X160174385Y-116546090D01*
X160181777Y-116543445D01*
X160189393Y-116541537D01*
X160197159Y-116540385D01*
X160205000Y-116540000D01*
X161315000Y-116540000D01*
X161322841Y-116540385D01*
X161322841Y-116540385D01*
G37*
D16*
X160760000Y-116700000D03*
D14*
G36*
X161322841Y-119540385D02*
X161330607Y-119541537D01*
X161338223Y-119543445D01*
X161345615Y-119546090D01*
X161352712Y-119549446D01*
X161359446Y-119553482D01*
X161365751Y-119558159D01*
X161371569Y-119563431D01*
X161376841Y-119569249D01*
X161381518Y-119575554D01*
X161385554Y-119582288D01*
X161388910Y-119589385D01*
X161391555Y-119596777D01*
X161393463Y-119604393D01*
X161394615Y-119612159D01*
X161395000Y-119620000D01*
X161395000Y-119780000D01*
X161394615Y-119787841D01*
X161393463Y-119795607D01*
X161391555Y-119803223D01*
X161388910Y-119810615D01*
X161385554Y-119817712D01*
X161381518Y-119824446D01*
X161376841Y-119830751D01*
X161371569Y-119836569D01*
X161365751Y-119841841D01*
X161359446Y-119846518D01*
X161352712Y-119850554D01*
X161345615Y-119853910D01*
X161338223Y-119856555D01*
X161330607Y-119858463D01*
X161322841Y-119859615D01*
X161315000Y-119860000D01*
X160205000Y-119860000D01*
X160197159Y-119859615D01*
X160189393Y-119858463D01*
X160181777Y-119856555D01*
X160174385Y-119853910D01*
X160167288Y-119850554D01*
X160160554Y-119846518D01*
X160154249Y-119841841D01*
X160148431Y-119836569D01*
X160143159Y-119830751D01*
X160138482Y-119824446D01*
X160134446Y-119817712D01*
X160131090Y-119810615D01*
X160128445Y-119803223D01*
X160126537Y-119795607D01*
X160125385Y-119787841D01*
X160125000Y-119780000D01*
X160125000Y-119620000D01*
X160125385Y-119612159D01*
X160126537Y-119604393D01*
X160128445Y-119596777D01*
X160131090Y-119589385D01*
X160134446Y-119582288D01*
X160138482Y-119575554D01*
X160143159Y-119569249D01*
X160148431Y-119563431D01*
X160154249Y-119558159D01*
X160160554Y-119553482D01*
X160167288Y-119549446D01*
X160174385Y-119546090D01*
X160181777Y-119543445D01*
X160189393Y-119541537D01*
X160197159Y-119540385D01*
X160205000Y-119540000D01*
X161315000Y-119540000D01*
X161322841Y-119540385D01*
X161322841Y-119540385D01*
G37*
D16*
X160760000Y-119700000D03*
D14*
G36*
X161322841Y-119040385D02*
X161330607Y-119041537D01*
X161338223Y-119043445D01*
X161345615Y-119046090D01*
X161352712Y-119049446D01*
X161359446Y-119053482D01*
X161365751Y-119058159D01*
X161371569Y-119063431D01*
X161376841Y-119069249D01*
X161381518Y-119075554D01*
X161385554Y-119082288D01*
X161388910Y-119089385D01*
X161391555Y-119096777D01*
X161393463Y-119104393D01*
X161394615Y-119112159D01*
X161395000Y-119120000D01*
X161395000Y-119280000D01*
X161394615Y-119287841D01*
X161393463Y-119295607D01*
X161391555Y-119303223D01*
X161388910Y-119310615D01*
X161385554Y-119317712D01*
X161381518Y-119324446D01*
X161376841Y-119330751D01*
X161371569Y-119336569D01*
X161365751Y-119341841D01*
X161359446Y-119346518D01*
X161352712Y-119350554D01*
X161345615Y-119353910D01*
X161338223Y-119356555D01*
X161330607Y-119358463D01*
X161322841Y-119359615D01*
X161315000Y-119360000D01*
X160205000Y-119360000D01*
X160197159Y-119359615D01*
X160189393Y-119358463D01*
X160181777Y-119356555D01*
X160174385Y-119353910D01*
X160167288Y-119350554D01*
X160160554Y-119346518D01*
X160154249Y-119341841D01*
X160148431Y-119336569D01*
X160143159Y-119330751D01*
X160138482Y-119324446D01*
X160134446Y-119317712D01*
X160131090Y-119310615D01*
X160128445Y-119303223D01*
X160126537Y-119295607D01*
X160125385Y-119287841D01*
X160125000Y-119280000D01*
X160125000Y-119120000D01*
X160125385Y-119112159D01*
X160126537Y-119104393D01*
X160128445Y-119096777D01*
X160131090Y-119089385D01*
X160134446Y-119082288D01*
X160138482Y-119075554D01*
X160143159Y-119069249D01*
X160148431Y-119063431D01*
X160154249Y-119058159D01*
X160160554Y-119053482D01*
X160167288Y-119049446D01*
X160174385Y-119046090D01*
X160181777Y-119043445D01*
X160189393Y-119041537D01*
X160197159Y-119040385D01*
X160205000Y-119040000D01*
X161315000Y-119040000D01*
X161322841Y-119040385D01*
X161322841Y-119040385D01*
G37*
D16*
X160760000Y-119200000D03*
D14*
G36*
X161322841Y-117540385D02*
X161330607Y-117541537D01*
X161338223Y-117543445D01*
X161345615Y-117546090D01*
X161352712Y-117549446D01*
X161359446Y-117553482D01*
X161365751Y-117558159D01*
X161371569Y-117563431D01*
X161376841Y-117569249D01*
X161381518Y-117575554D01*
X161385554Y-117582288D01*
X161388910Y-117589385D01*
X161391555Y-117596777D01*
X161393463Y-117604393D01*
X161394615Y-117612159D01*
X161395000Y-117620000D01*
X161395000Y-117780000D01*
X161394615Y-117787841D01*
X161393463Y-117795607D01*
X161391555Y-117803223D01*
X161388910Y-117810615D01*
X161385554Y-117817712D01*
X161381518Y-117824446D01*
X161376841Y-117830751D01*
X161371569Y-117836569D01*
X161365751Y-117841841D01*
X161359446Y-117846518D01*
X161352712Y-117850554D01*
X161345615Y-117853910D01*
X161338223Y-117856555D01*
X161330607Y-117858463D01*
X161322841Y-117859615D01*
X161315000Y-117860000D01*
X160205000Y-117860000D01*
X160197159Y-117859615D01*
X160189393Y-117858463D01*
X160181777Y-117856555D01*
X160174385Y-117853910D01*
X160167288Y-117850554D01*
X160160554Y-117846518D01*
X160154249Y-117841841D01*
X160148431Y-117836569D01*
X160143159Y-117830751D01*
X160138482Y-117824446D01*
X160134446Y-117817712D01*
X160131090Y-117810615D01*
X160128445Y-117803223D01*
X160126537Y-117795607D01*
X160125385Y-117787841D01*
X160125000Y-117780000D01*
X160125000Y-117620000D01*
X160125385Y-117612159D01*
X160126537Y-117604393D01*
X160128445Y-117596777D01*
X160131090Y-117589385D01*
X160134446Y-117582288D01*
X160138482Y-117575554D01*
X160143159Y-117569249D01*
X160148431Y-117563431D01*
X160154249Y-117558159D01*
X160160554Y-117553482D01*
X160167288Y-117549446D01*
X160174385Y-117546090D01*
X160181777Y-117543445D01*
X160189393Y-117541537D01*
X160197159Y-117540385D01*
X160205000Y-117540000D01*
X161315000Y-117540000D01*
X161322841Y-117540385D01*
X161322841Y-117540385D01*
G37*
D16*
X160760000Y-117700000D03*
D14*
G36*
X161322841Y-117040385D02*
X161330607Y-117041537D01*
X161338223Y-117043445D01*
X161345615Y-117046090D01*
X161352712Y-117049446D01*
X161359446Y-117053482D01*
X161365751Y-117058159D01*
X161371569Y-117063431D01*
X161376841Y-117069249D01*
X161381518Y-117075554D01*
X161385554Y-117082288D01*
X161388910Y-117089385D01*
X161391555Y-117096777D01*
X161393463Y-117104393D01*
X161394615Y-117112159D01*
X161395000Y-117120000D01*
X161395000Y-117280000D01*
X161394615Y-117287841D01*
X161393463Y-117295607D01*
X161391555Y-117303223D01*
X161388910Y-117310615D01*
X161385554Y-117317712D01*
X161381518Y-117324446D01*
X161376841Y-117330751D01*
X161371569Y-117336569D01*
X161365751Y-117341841D01*
X161359446Y-117346518D01*
X161352712Y-117350554D01*
X161345615Y-117353910D01*
X161338223Y-117356555D01*
X161330607Y-117358463D01*
X161322841Y-117359615D01*
X161315000Y-117360000D01*
X160205000Y-117360000D01*
X160197159Y-117359615D01*
X160189393Y-117358463D01*
X160181777Y-117356555D01*
X160174385Y-117353910D01*
X160167288Y-117350554D01*
X160160554Y-117346518D01*
X160154249Y-117341841D01*
X160148431Y-117336569D01*
X160143159Y-117330751D01*
X160138482Y-117324446D01*
X160134446Y-117317712D01*
X160131090Y-117310615D01*
X160128445Y-117303223D01*
X160126537Y-117295607D01*
X160125385Y-117287841D01*
X160125000Y-117280000D01*
X160125000Y-117120000D01*
X160125385Y-117112159D01*
X160126537Y-117104393D01*
X160128445Y-117096777D01*
X160131090Y-117089385D01*
X160134446Y-117082288D01*
X160138482Y-117075554D01*
X160143159Y-117069249D01*
X160148431Y-117063431D01*
X160154249Y-117058159D01*
X160160554Y-117053482D01*
X160167288Y-117049446D01*
X160174385Y-117046090D01*
X160181777Y-117043445D01*
X160189393Y-117041537D01*
X160197159Y-117040385D01*
X160205000Y-117040000D01*
X161315000Y-117040000D01*
X161322841Y-117040385D01*
X161322841Y-117040385D01*
G37*
D16*
X160760000Y-117200000D03*
D14*
G36*
X161322841Y-118540385D02*
X161330607Y-118541537D01*
X161338223Y-118543445D01*
X161345615Y-118546090D01*
X161352712Y-118549446D01*
X161359446Y-118553482D01*
X161365751Y-118558159D01*
X161371569Y-118563431D01*
X161376841Y-118569249D01*
X161381518Y-118575554D01*
X161385554Y-118582288D01*
X161388910Y-118589385D01*
X161391555Y-118596777D01*
X161393463Y-118604393D01*
X161394615Y-118612159D01*
X161395000Y-118620000D01*
X161395000Y-118780000D01*
X161394615Y-118787841D01*
X161393463Y-118795607D01*
X161391555Y-118803223D01*
X161388910Y-118810615D01*
X161385554Y-118817712D01*
X161381518Y-118824446D01*
X161376841Y-118830751D01*
X161371569Y-118836569D01*
X161365751Y-118841841D01*
X161359446Y-118846518D01*
X161352712Y-118850554D01*
X161345615Y-118853910D01*
X161338223Y-118856555D01*
X161330607Y-118858463D01*
X161322841Y-118859615D01*
X161315000Y-118860000D01*
X160205000Y-118860000D01*
X160197159Y-118859615D01*
X160189393Y-118858463D01*
X160181777Y-118856555D01*
X160174385Y-118853910D01*
X160167288Y-118850554D01*
X160160554Y-118846518D01*
X160154249Y-118841841D01*
X160148431Y-118836569D01*
X160143159Y-118830751D01*
X160138482Y-118824446D01*
X160134446Y-118817712D01*
X160131090Y-118810615D01*
X160128445Y-118803223D01*
X160126537Y-118795607D01*
X160125385Y-118787841D01*
X160125000Y-118780000D01*
X160125000Y-118620000D01*
X160125385Y-118612159D01*
X160126537Y-118604393D01*
X160128445Y-118596777D01*
X160131090Y-118589385D01*
X160134446Y-118582288D01*
X160138482Y-118575554D01*
X160143159Y-118569249D01*
X160148431Y-118563431D01*
X160154249Y-118558159D01*
X160160554Y-118553482D01*
X160167288Y-118549446D01*
X160174385Y-118546090D01*
X160181777Y-118543445D01*
X160189393Y-118541537D01*
X160197159Y-118540385D01*
X160205000Y-118540000D01*
X161315000Y-118540000D01*
X161322841Y-118540385D01*
X161322841Y-118540385D01*
G37*
D16*
X160760000Y-118700000D03*
D14*
G36*
X161322841Y-118040385D02*
X161330607Y-118041537D01*
X161338223Y-118043445D01*
X161345615Y-118046090D01*
X161352712Y-118049446D01*
X161359446Y-118053482D01*
X161365751Y-118058159D01*
X161371569Y-118063431D01*
X161376841Y-118069249D01*
X161381518Y-118075554D01*
X161385554Y-118082288D01*
X161388910Y-118089385D01*
X161391555Y-118096777D01*
X161393463Y-118104393D01*
X161394615Y-118112159D01*
X161395000Y-118120000D01*
X161395000Y-118280000D01*
X161394615Y-118287841D01*
X161393463Y-118295607D01*
X161391555Y-118303223D01*
X161388910Y-118310615D01*
X161385554Y-118317712D01*
X161381518Y-118324446D01*
X161376841Y-118330751D01*
X161371569Y-118336569D01*
X161365751Y-118341841D01*
X161359446Y-118346518D01*
X161352712Y-118350554D01*
X161345615Y-118353910D01*
X161338223Y-118356555D01*
X161330607Y-118358463D01*
X161322841Y-118359615D01*
X161315000Y-118360000D01*
X160205000Y-118360000D01*
X160197159Y-118359615D01*
X160189393Y-118358463D01*
X160181777Y-118356555D01*
X160174385Y-118353910D01*
X160167288Y-118350554D01*
X160160554Y-118346518D01*
X160154249Y-118341841D01*
X160148431Y-118336569D01*
X160143159Y-118330751D01*
X160138482Y-118324446D01*
X160134446Y-118317712D01*
X160131090Y-118310615D01*
X160128445Y-118303223D01*
X160126537Y-118295607D01*
X160125385Y-118287841D01*
X160125000Y-118280000D01*
X160125000Y-118120000D01*
X160125385Y-118112159D01*
X160126537Y-118104393D01*
X160128445Y-118096777D01*
X160131090Y-118089385D01*
X160134446Y-118082288D01*
X160138482Y-118075554D01*
X160143159Y-118069249D01*
X160148431Y-118063431D01*
X160154249Y-118058159D01*
X160160554Y-118053482D01*
X160167288Y-118049446D01*
X160174385Y-118046090D01*
X160181777Y-118043445D01*
X160189393Y-118041537D01*
X160197159Y-118040385D01*
X160205000Y-118040000D01*
X161315000Y-118040000D01*
X161322841Y-118040385D01*
X161322841Y-118040385D01*
G37*
D16*
X160760000Y-118200000D03*
D14*
G36*
X161322841Y-121540385D02*
X161330607Y-121541537D01*
X161338223Y-121543445D01*
X161345615Y-121546090D01*
X161352712Y-121549446D01*
X161359446Y-121553482D01*
X161365751Y-121558159D01*
X161371569Y-121563431D01*
X161376841Y-121569249D01*
X161381518Y-121575554D01*
X161385554Y-121582288D01*
X161388910Y-121589385D01*
X161391555Y-121596777D01*
X161393463Y-121604393D01*
X161394615Y-121612159D01*
X161395000Y-121620000D01*
X161395000Y-121780000D01*
X161394615Y-121787841D01*
X161393463Y-121795607D01*
X161391555Y-121803223D01*
X161388910Y-121810615D01*
X161385554Y-121817712D01*
X161381518Y-121824446D01*
X161376841Y-121830751D01*
X161371569Y-121836569D01*
X161365751Y-121841841D01*
X161359446Y-121846518D01*
X161352712Y-121850554D01*
X161345615Y-121853910D01*
X161338223Y-121856555D01*
X161330607Y-121858463D01*
X161322841Y-121859615D01*
X161315000Y-121860000D01*
X160205000Y-121860000D01*
X160197159Y-121859615D01*
X160189393Y-121858463D01*
X160181777Y-121856555D01*
X160174385Y-121853910D01*
X160167288Y-121850554D01*
X160160554Y-121846518D01*
X160154249Y-121841841D01*
X160148431Y-121836569D01*
X160143159Y-121830751D01*
X160138482Y-121824446D01*
X160134446Y-121817712D01*
X160131090Y-121810615D01*
X160128445Y-121803223D01*
X160126537Y-121795607D01*
X160125385Y-121787841D01*
X160125000Y-121780000D01*
X160125000Y-121620000D01*
X160125385Y-121612159D01*
X160126537Y-121604393D01*
X160128445Y-121596777D01*
X160131090Y-121589385D01*
X160134446Y-121582288D01*
X160138482Y-121575554D01*
X160143159Y-121569249D01*
X160148431Y-121563431D01*
X160154249Y-121558159D01*
X160160554Y-121553482D01*
X160167288Y-121549446D01*
X160174385Y-121546090D01*
X160181777Y-121543445D01*
X160189393Y-121541537D01*
X160197159Y-121540385D01*
X160205000Y-121540000D01*
X161315000Y-121540000D01*
X161322841Y-121540385D01*
X161322841Y-121540385D01*
G37*
D16*
X160760000Y-121700000D03*
D14*
G36*
X161322841Y-121040385D02*
X161330607Y-121041537D01*
X161338223Y-121043445D01*
X161345615Y-121046090D01*
X161352712Y-121049446D01*
X161359446Y-121053482D01*
X161365751Y-121058159D01*
X161371569Y-121063431D01*
X161376841Y-121069249D01*
X161381518Y-121075554D01*
X161385554Y-121082288D01*
X161388910Y-121089385D01*
X161391555Y-121096777D01*
X161393463Y-121104393D01*
X161394615Y-121112159D01*
X161395000Y-121120000D01*
X161395000Y-121280000D01*
X161394615Y-121287841D01*
X161393463Y-121295607D01*
X161391555Y-121303223D01*
X161388910Y-121310615D01*
X161385554Y-121317712D01*
X161381518Y-121324446D01*
X161376841Y-121330751D01*
X161371569Y-121336569D01*
X161365751Y-121341841D01*
X161359446Y-121346518D01*
X161352712Y-121350554D01*
X161345615Y-121353910D01*
X161338223Y-121356555D01*
X161330607Y-121358463D01*
X161322841Y-121359615D01*
X161315000Y-121360000D01*
X160205000Y-121360000D01*
X160197159Y-121359615D01*
X160189393Y-121358463D01*
X160181777Y-121356555D01*
X160174385Y-121353910D01*
X160167288Y-121350554D01*
X160160554Y-121346518D01*
X160154249Y-121341841D01*
X160148431Y-121336569D01*
X160143159Y-121330751D01*
X160138482Y-121324446D01*
X160134446Y-121317712D01*
X160131090Y-121310615D01*
X160128445Y-121303223D01*
X160126537Y-121295607D01*
X160125385Y-121287841D01*
X160125000Y-121280000D01*
X160125000Y-121120000D01*
X160125385Y-121112159D01*
X160126537Y-121104393D01*
X160128445Y-121096777D01*
X160131090Y-121089385D01*
X160134446Y-121082288D01*
X160138482Y-121075554D01*
X160143159Y-121069249D01*
X160148431Y-121063431D01*
X160154249Y-121058159D01*
X160160554Y-121053482D01*
X160167288Y-121049446D01*
X160174385Y-121046090D01*
X160181777Y-121043445D01*
X160189393Y-121041537D01*
X160197159Y-121040385D01*
X160205000Y-121040000D01*
X161315000Y-121040000D01*
X161322841Y-121040385D01*
X161322841Y-121040385D01*
G37*
D16*
X160760000Y-121200000D03*
D14*
G36*
X161322841Y-120540385D02*
X161330607Y-120541537D01*
X161338223Y-120543445D01*
X161345615Y-120546090D01*
X161352712Y-120549446D01*
X161359446Y-120553482D01*
X161365751Y-120558159D01*
X161371569Y-120563431D01*
X161376841Y-120569249D01*
X161381518Y-120575554D01*
X161385554Y-120582288D01*
X161388910Y-120589385D01*
X161391555Y-120596777D01*
X161393463Y-120604393D01*
X161394615Y-120612159D01*
X161395000Y-120620000D01*
X161395000Y-120780000D01*
X161394615Y-120787841D01*
X161393463Y-120795607D01*
X161391555Y-120803223D01*
X161388910Y-120810615D01*
X161385554Y-120817712D01*
X161381518Y-120824446D01*
X161376841Y-120830751D01*
X161371569Y-120836569D01*
X161365751Y-120841841D01*
X161359446Y-120846518D01*
X161352712Y-120850554D01*
X161345615Y-120853910D01*
X161338223Y-120856555D01*
X161330607Y-120858463D01*
X161322841Y-120859615D01*
X161315000Y-120860000D01*
X160205000Y-120860000D01*
X160197159Y-120859615D01*
X160189393Y-120858463D01*
X160181777Y-120856555D01*
X160174385Y-120853910D01*
X160167288Y-120850554D01*
X160160554Y-120846518D01*
X160154249Y-120841841D01*
X160148431Y-120836569D01*
X160143159Y-120830751D01*
X160138482Y-120824446D01*
X160134446Y-120817712D01*
X160131090Y-120810615D01*
X160128445Y-120803223D01*
X160126537Y-120795607D01*
X160125385Y-120787841D01*
X160125000Y-120780000D01*
X160125000Y-120620000D01*
X160125385Y-120612159D01*
X160126537Y-120604393D01*
X160128445Y-120596777D01*
X160131090Y-120589385D01*
X160134446Y-120582288D01*
X160138482Y-120575554D01*
X160143159Y-120569249D01*
X160148431Y-120563431D01*
X160154249Y-120558159D01*
X160160554Y-120553482D01*
X160167288Y-120549446D01*
X160174385Y-120546090D01*
X160181777Y-120543445D01*
X160189393Y-120541537D01*
X160197159Y-120540385D01*
X160205000Y-120540000D01*
X161315000Y-120540000D01*
X161322841Y-120540385D01*
X161322841Y-120540385D01*
G37*
D16*
X160760000Y-120700000D03*
D14*
G36*
X161322841Y-120040385D02*
X161330607Y-120041537D01*
X161338223Y-120043445D01*
X161345615Y-120046090D01*
X161352712Y-120049446D01*
X161359446Y-120053482D01*
X161365751Y-120058159D01*
X161371569Y-120063431D01*
X161376841Y-120069249D01*
X161381518Y-120075554D01*
X161385554Y-120082288D01*
X161388910Y-120089385D01*
X161391555Y-120096777D01*
X161393463Y-120104393D01*
X161394615Y-120112159D01*
X161395000Y-120120000D01*
X161395000Y-120280000D01*
X161394615Y-120287841D01*
X161393463Y-120295607D01*
X161391555Y-120303223D01*
X161388910Y-120310615D01*
X161385554Y-120317712D01*
X161381518Y-120324446D01*
X161376841Y-120330751D01*
X161371569Y-120336569D01*
X161365751Y-120341841D01*
X161359446Y-120346518D01*
X161352712Y-120350554D01*
X161345615Y-120353910D01*
X161338223Y-120356555D01*
X161330607Y-120358463D01*
X161322841Y-120359615D01*
X161315000Y-120360000D01*
X160205000Y-120360000D01*
X160197159Y-120359615D01*
X160189393Y-120358463D01*
X160181777Y-120356555D01*
X160174385Y-120353910D01*
X160167288Y-120350554D01*
X160160554Y-120346518D01*
X160154249Y-120341841D01*
X160148431Y-120336569D01*
X160143159Y-120330751D01*
X160138482Y-120324446D01*
X160134446Y-120317712D01*
X160131090Y-120310615D01*
X160128445Y-120303223D01*
X160126537Y-120295607D01*
X160125385Y-120287841D01*
X160125000Y-120280000D01*
X160125000Y-120120000D01*
X160125385Y-120112159D01*
X160126537Y-120104393D01*
X160128445Y-120096777D01*
X160131090Y-120089385D01*
X160134446Y-120082288D01*
X160138482Y-120075554D01*
X160143159Y-120069249D01*
X160148431Y-120063431D01*
X160154249Y-120058159D01*
X160160554Y-120053482D01*
X160167288Y-120049446D01*
X160174385Y-120046090D01*
X160181777Y-120043445D01*
X160189393Y-120041537D01*
X160197159Y-120040385D01*
X160205000Y-120040000D01*
X161315000Y-120040000D01*
X161322841Y-120040385D01*
X161322841Y-120040385D01*
G37*
D16*
X160760000Y-120200000D03*
D14*
G36*
X161322841Y-122540385D02*
X161330607Y-122541537D01*
X161338223Y-122543445D01*
X161345615Y-122546090D01*
X161352712Y-122549446D01*
X161359446Y-122553482D01*
X161365751Y-122558159D01*
X161371569Y-122563431D01*
X161376841Y-122569249D01*
X161381518Y-122575554D01*
X161385554Y-122582288D01*
X161388910Y-122589385D01*
X161391555Y-122596777D01*
X161393463Y-122604393D01*
X161394615Y-122612159D01*
X161395000Y-122620000D01*
X161395000Y-122780000D01*
X161394615Y-122787841D01*
X161393463Y-122795607D01*
X161391555Y-122803223D01*
X161388910Y-122810615D01*
X161385554Y-122817712D01*
X161381518Y-122824446D01*
X161376841Y-122830751D01*
X161371569Y-122836569D01*
X161365751Y-122841841D01*
X161359446Y-122846518D01*
X161352712Y-122850554D01*
X161345615Y-122853910D01*
X161338223Y-122856555D01*
X161330607Y-122858463D01*
X161322841Y-122859615D01*
X161315000Y-122860000D01*
X160205000Y-122860000D01*
X160197159Y-122859615D01*
X160189393Y-122858463D01*
X160181777Y-122856555D01*
X160174385Y-122853910D01*
X160167288Y-122850554D01*
X160160554Y-122846518D01*
X160154249Y-122841841D01*
X160148431Y-122836569D01*
X160143159Y-122830751D01*
X160138482Y-122824446D01*
X160134446Y-122817712D01*
X160131090Y-122810615D01*
X160128445Y-122803223D01*
X160126537Y-122795607D01*
X160125385Y-122787841D01*
X160125000Y-122780000D01*
X160125000Y-122620000D01*
X160125385Y-122612159D01*
X160126537Y-122604393D01*
X160128445Y-122596777D01*
X160131090Y-122589385D01*
X160134446Y-122582288D01*
X160138482Y-122575554D01*
X160143159Y-122569249D01*
X160148431Y-122563431D01*
X160154249Y-122558159D01*
X160160554Y-122553482D01*
X160167288Y-122549446D01*
X160174385Y-122546090D01*
X160181777Y-122543445D01*
X160189393Y-122541537D01*
X160197159Y-122540385D01*
X160205000Y-122540000D01*
X161315000Y-122540000D01*
X161322841Y-122540385D01*
X161322841Y-122540385D01*
G37*
D16*
X160760000Y-122700000D03*
D14*
G36*
X161322841Y-122040385D02*
X161330607Y-122041537D01*
X161338223Y-122043445D01*
X161345615Y-122046090D01*
X161352712Y-122049446D01*
X161359446Y-122053482D01*
X161365751Y-122058159D01*
X161371569Y-122063431D01*
X161376841Y-122069249D01*
X161381518Y-122075554D01*
X161385554Y-122082288D01*
X161388910Y-122089385D01*
X161391555Y-122096777D01*
X161393463Y-122104393D01*
X161394615Y-122112159D01*
X161395000Y-122120000D01*
X161395000Y-122280000D01*
X161394615Y-122287841D01*
X161393463Y-122295607D01*
X161391555Y-122303223D01*
X161388910Y-122310615D01*
X161385554Y-122317712D01*
X161381518Y-122324446D01*
X161376841Y-122330751D01*
X161371569Y-122336569D01*
X161365751Y-122341841D01*
X161359446Y-122346518D01*
X161352712Y-122350554D01*
X161345615Y-122353910D01*
X161338223Y-122356555D01*
X161330607Y-122358463D01*
X161322841Y-122359615D01*
X161315000Y-122360000D01*
X160205000Y-122360000D01*
X160197159Y-122359615D01*
X160189393Y-122358463D01*
X160181777Y-122356555D01*
X160174385Y-122353910D01*
X160167288Y-122350554D01*
X160160554Y-122346518D01*
X160154249Y-122341841D01*
X160148431Y-122336569D01*
X160143159Y-122330751D01*
X160138482Y-122324446D01*
X160134446Y-122317712D01*
X160131090Y-122310615D01*
X160128445Y-122303223D01*
X160126537Y-122295607D01*
X160125385Y-122287841D01*
X160125000Y-122280000D01*
X160125000Y-122120000D01*
X160125385Y-122112159D01*
X160126537Y-122104393D01*
X160128445Y-122096777D01*
X160131090Y-122089385D01*
X160134446Y-122082288D01*
X160138482Y-122075554D01*
X160143159Y-122069249D01*
X160148431Y-122063431D01*
X160154249Y-122058159D01*
X160160554Y-122053482D01*
X160167288Y-122049446D01*
X160174385Y-122046090D01*
X160181777Y-122043445D01*
X160189393Y-122041537D01*
X160197159Y-122040385D01*
X160205000Y-122040000D01*
X161315000Y-122040000D01*
X161322841Y-122040385D01*
X161322841Y-122040385D01*
G37*
D16*
X160760000Y-122200000D03*
D14*
G36*
X161322841Y-123040385D02*
X161330607Y-123041537D01*
X161338223Y-123043445D01*
X161345615Y-123046090D01*
X161352712Y-123049446D01*
X161359446Y-123053482D01*
X161365751Y-123058159D01*
X161371569Y-123063431D01*
X161376841Y-123069249D01*
X161381518Y-123075554D01*
X161385554Y-123082288D01*
X161388910Y-123089385D01*
X161391555Y-123096777D01*
X161393463Y-123104393D01*
X161394615Y-123112159D01*
X161395000Y-123120000D01*
X161395000Y-123280000D01*
X161394615Y-123287841D01*
X161393463Y-123295607D01*
X161391555Y-123303223D01*
X161388910Y-123310615D01*
X161385554Y-123317712D01*
X161381518Y-123324446D01*
X161376841Y-123330751D01*
X161371569Y-123336569D01*
X161365751Y-123341841D01*
X161359446Y-123346518D01*
X161352712Y-123350554D01*
X161345615Y-123353910D01*
X161338223Y-123356555D01*
X161330607Y-123358463D01*
X161322841Y-123359615D01*
X161315000Y-123360000D01*
X160205000Y-123360000D01*
X160197159Y-123359615D01*
X160189393Y-123358463D01*
X160181777Y-123356555D01*
X160174385Y-123353910D01*
X160167288Y-123350554D01*
X160160554Y-123346518D01*
X160154249Y-123341841D01*
X160148431Y-123336569D01*
X160143159Y-123330751D01*
X160138482Y-123324446D01*
X160134446Y-123317712D01*
X160131090Y-123310615D01*
X160128445Y-123303223D01*
X160126537Y-123295607D01*
X160125385Y-123287841D01*
X160125000Y-123280000D01*
X160125000Y-123120000D01*
X160125385Y-123112159D01*
X160126537Y-123104393D01*
X160128445Y-123096777D01*
X160131090Y-123089385D01*
X160134446Y-123082288D01*
X160138482Y-123075554D01*
X160143159Y-123069249D01*
X160148431Y-123063431D01*
X160154249Y-123058159D01*
X160160554Y-123053482D01*
X160167288Y-123049446D01*
X160174385Y-123046090D01*
X160181777Y-123043445D01*
X160189393Y-123041537D01*
X160197159Y-123040385D01*
X160205000Y-123040000D01*
X161315000Y-123040000D01*
X161322841Y-123040385D01*
X161322841Y-123040385D01*
G37*
D16*
X160760000Y-123200000D03*
D14*
G36*
X161322841Y-123540385D02*
X161330607Y-123541537D01*
X161338223Y-123543445D01*
X161345615Y-123546090D01*
X161352712Y-123549446D01*
X161359446Y-123553482D01*
X161365751Y-123558159D01*
X161371569Y-123563431D01*
X161376841Y-123569249D01*
X161381518Y-123575554D01*
X161385554Y-123582288D01*
X161388910Y-123589385D01*
X161391555Y-123596777D01*
X161393463Y-123604393D01*
X161394615Y-123612159D01*
X161395000Y-123620000D01*
X161395000Y-123780000D01*
X161394615Y-123787841D01*
X161393463Y-123795607D01*
X161391555Y-123803223D01*
X161388910Y-123810615D01*
X161385554Y-123817712D01*
X161381518Y-123824446D01*
X161376841Y-123830751D01*
X161371569Y-123836569D01*
X161365751Y-123841841D01*
X161359446Y-123846518D01*
X161352712Y-123850554D01*
X161345615Y-123853910D01*
X161338223Y-123856555D01*
X161330607Y-123858463D01*
X161322841Y-123859615D01*
X161315000Y-123860000D01*
X160205000Y-123860000D01*
X160197159Y-123859615D01*
X160189393Y-123858463D01*
X160181777Y-123856555D01*
X160174385Y-123853910D01*
X160167288Y-123850554D01*
X160160554Y-123846518D01*
X160154249Y-123841841D01*
X160148431Y-123836569D01*
X160143159Y-123830751D01*
X160138482Y-123824446D01*
X160134446Y-123817712D01*
X160131090Y-123810615D01*
X160128445Y-123803223D01*
X160126537Y-123795607D01*
X160125385Y-123787841D01*
X160125000Y-123780000D01*
X160125000Y-123620000D01*
X160125385Y-123612159D01*
X160126537Y-123604393D01*
X160128445Y-123596777D01*
X160131090Y-123589385D01*
X160134446Y-123582288D01*
X160138482Y-123575554D01*
X160143159Y-123569249D01*
X160148431Y-123563431D01*
X160154249Y-123558159D01*
X160160554Y-123553482D01*
X160167288Y-123549446D01*
X160174385Y-123546090D01*
X160181777Y-123543445D01*
X160189393Y-123541537D01*
X160197159Y-123540385D01*
X160205000Y-123540000D01*
X161315000Y-123540000D01*
X161322841Y-123540385D01*
X161322841Y-123540385D01*
G37*
D16*
X160760000Y-123700000D03*
%TD*%
D17*
%TO.C,C2*%
X167986000Y-129100000D03*
X171034000Y-129100000D03*
%TD*%
D18*
%TO.C,C1*%
X175440000Y-137540000D03*
X175440000Y-134740000D03*
%TD*%
D19*
%TO.C,CF1*%
X166222500Y-134350000D03*
X168127500Y-134350000D03*
%TD*%
D20*
%TO.C,D1*%
X175550000Y-132260000D03*
X175550000Y-128760000D03*
%TD*%
D21*
%TO.C,L1*%
X179575000Y-133390000D03*
X179575000Y-130790000D03*
%TD*%
D22*
%TO.C,R2*%
X168145000Y-136470000D03*
X169545000Y-136470000D03*
%TD*%
D19*
%TO.C,R3*%
X171222500Y-137480000D03*
X173127500Y-137480000D03*
%TD*%
D23*
%TO.C,U1*%
X173097500Y-135430000D03*
X171192500Y-135430000D03*
X171192500Y-132730000D03*
X172145000Y-132730000D03*
X173097500Y-132730000D03*
%TD*%
D19*
%TO.C,R5*%
X171222500Y-139540000D03*
X169317500Y-139540000D03*
%TD*%
%TO.C,C3*%
X124523614Y-78342840D03*
X126428614Y-78342840D03*
%TD*%
D13*
%TO.C,C4*%
X164700000Y-123237500D03*
X164700000Y-125142500D03*
%TD*%
%TO.C,C5*%
X162710000Y-123687500D03*
X162710000Y-125592500D03*
%TD*%
D19*
%TO.C,R22*%
X173097500Y-140790000D03*
X175002500Y-140790000D03*
%TD*%
D14*
%TO.C,P3*%
G36*
X164055782Y-133980530D02*
X164066460Y-133982114D01*
X164076931Y-133984737D01*
X164087095Y-133988373D01*
X164096854Y-133992989D01*
X164106113Y-133998538D01*
X164114783Y-134004969D01*
X164122782Y-134012218D01*
X164130031Y-134020217D01*
X164136462Y-134028887D01*
X164142011Y-134038146D01*
X164146627Y-134047905D01*
X164150263Y-134058069D01*
X164152886Y-134068540D01*
X164154470Y-134079218D01*
X164155000Y-134090000D01*
X164155000Y-134310000D01*
X164154470Y-134320782D01*
X164152886Y-134331460D01*
X164150263Y-134341931D01*
X164146627Y-134352095D01*
X164142011Y-134361854D01*
X164136462Y-134371113D01*
X164130031Y-134379783D01*
X164122782Y-134387782D01*
X164114783Y-134395031D01*
X164106113Y-134401462D01*
X164096854Y-134407011D01*
X164087095Y-134411627D01*
X164076931Y-134415263D01*
X164066460Y-134417886D01*
X164055782Y-134419470D01*
X164045000Y-134420000D01*
X162875000Y-134420000D01*
X162864218Y-134419470D01*
X162853540Y-134417886D01*
X162843069Y-134415263D01*
X162832905Y-134411627D01*
X162823146Y-134407011D01*
X162813887Y-134401462D01*
X162805217Y-134395031D01*
X162797218Y-134387782D01*
X162789969Y-134379783D01*
X162783538Y-134371113D01*
X162777989Y-134361854D01*
X162773373Y-134352095D01*
X162769737Y-134341931D01*
X162767114Y-134331460D01*
X162765530Y-134320782D01*
X162765000Y-134310000D01*
X162765000Y-134090000D01*
X162765530Y-134079218D01*
X162767114Y-134068540D01*
X162769737Y-134058069D01*
X162773373Y-134047905D01*
X162777989Y-134038146D01*
X162783538Y-134028887D01*
X162789969Y-134020217D01*
X162797218Y-134012218D01*
X162805217Y-134004969D01*
X162813887Y-133998538D01*
X162823146Y-133992989D01*
X162832905Y-133988373D01*
X162843069Y-133984737D01*
X162853540Y-133982114D01*
X162864218Y-133980530D01*
X162875000Y-133980000D01*
X164045000Y-133980000D01*
X164055782Y-133980530D01*
X164055782Y-133980530D01*
G37*
D24*
X163460000Y-134200000D03*
D14*
G36*
X164055782Y-133480530D02*
X164066460Y-133482114D01*
X164076931Y-133484737D01*
X164087095Y-133488373D01*
X164096854Y-133492989D01*
X164106113Y-133498538D01*
X164114783Y-133504969D01*
X164122782Y-133512218D01*
X164130031Y-133520217D01*
X164136462Y-133528887D01*
X164142011Y-133538146D01*
X164146627Y-133547905D01*
X164150263Y-133558069D01*
X164152886Y-133568540D01*
X164154470Y-133579218D01*
X164155000Y-133590000D01*
X164155000Y-133810000D01*
X164154470Y-133820782D01*
X164152886Y-133831460D01*
X164150263Y-133841931D01*
X164146627Y-133852095D01*
X164142011Y-133861854D01*
X164136462Y-133871113D01*
X164130031Y-133879783D01*
X164122782Y-133887782D01*
X164114783Y-133895031D01*
X164106113Y-133901462D01*
X164096854Y-133907011D01*
X164087095Y-133911627D01*
X164076931Y-133915263D01*
X164066460Y-133917886D01*
X164055782Y-133919470D01*
X164045000Y-133920000D01*
X162875000Y-133920000D01*
X162864218Y-133919470D01*
X162853540Y-133917886D01*
X162843069Y-133915263D01*
X162832905Y-133911627D01*
X162823146Y-133907011D01*
X162813887Y-133901462D01*
X162805217Y-133895031D01*
X162797218Y-133887782D01*
X162789969Y-133879783D01*
X162783538Y-133871113D01*
X162777989Y-133861854D01*
X162773373Y-133852095D01*
X162769737Y-133841931D01*
X162767114Y-133831460D01*
X162765530Y-133820782D01*
X162765000Y-133810000D01*
X162765000Y-133590000D01*
X162765530Y-133579218D01*
X162767114Y-133568540D01*
X162769737Y-133558069D01*
X162773373Y-133547905D01*
X162777989Y-133538146D01*
X162783538Y-133528887D01*
X162789969Y-133520217D01*
X162797218Y-133512218D01*
X162805217Y-133504969D01*
X162813887Y-133498538D01*
X162823146Y-133492989D01*
X162832905Y-133488373D01*
X162843069Y-133484737D01*
X162853540Y-133482114D01*
X162864218Y-133480530D01*
X162875000Y-133480000D01*
X164045000Y-133480000D01*
X164055782Y-133480530D01*
X164055782Y-133480530D01*
G37*
D24*
X163460000Y-133700000D03*
D14*
G36*
X164055782Y-132980530D02*
X164066460Y-132982114D01*
X164076931Y-132984737D01*
X164087095Y-132988373D01*
X164096854Y-132992989D01*
X164106113Y-132998538D01*
X164114783Y-133004969D01*
X164122782Y-133012218D01*
X164130031Y-133020217D01*
X164136462Y-133028887D01*
X164142011Y-133038146D01*
X164146627Y-133047905D01*
X164150263Y-133058069D01*
X164152886Y-133068540D01*
X164154470Y-133079218D01*
X164155000Y-133090000D01*
X164155000Y-133310000D01*
X164154470Y-133320782D01*
X164152886Y-133331460D01*
X164150263Y-133341931D01*
X164146627Y-133352095D01*
X164142011Y-133361854D01*
X164136462Y-133371113D01*
X164130031Y-133379783D01*
X164122782Y-133387782D01*
X164114783Y-133395031D01*
X164106113Y-133401462D01*
X164096854Y-133407011D01*
X164087095Y-133411627D01*
X164076931Y-133415263D01*
X164066460Y-133417886D01*
X164055782Y-133419470D01*
X164045000Y-133420000D01*
X162875000Y-133420000D01*
X162864218Y-133419470D01*
X162853540Y-133417886D01*
X162843069Y-133415263D01*
X162832905Y-133411627D01*
X162823146Y-133407011D01*
X162813887Y-133401462D01*
X162805217Y-133395031D01*
X162797218Y-133387782D01*
X162789969Y-133379783D01*
X162783538Y-133371113D01*
X162777989Y-133361854D01*
X162773373Y-133352095D01*
X162769737Y-133341931D01*
X162767114Y-133331460D01*
X162765530Y-133320782D01*
X162765000Y-133310000D01*
X162765000Y-133090000D01*
X162765530Y-133079218D01*
X162767114Y-133068540D01*
X162769737Y-133058069D01*
X162773373Y-133047905D01*
X162777989Y-133038146D01*
X162783538Y-133028887D01*
X162789969Y-133020217D01*
X162797218Y-133012218D01*
X162805217Y-133004969D01*
X162813887Y-132998538D01*
X162823146Y-132992989D01*
X162832905Y-132988373D01*
X162843069Y-132984737D01*
X162853540Y-132982114D01*
X162864218Y-132980530D01*
X162875000Y-132980000D01*
X164045000Y-132980000D01*
X164055782Y-132980530D01*
X164055782Y-132980530D01*
G37*
D24*
X163460000Y-133200000D03*
D14*
G36*
X164055782Y-132480530D02*
X164066460Y-132482114D01*
X164076931Y-132484737D01*
X164087095Y-132488373D01*
X164096854Y-132492989D01*
X164106113Y-132498538D01*
X164114783Y-132504969D01*
X164122782Y-132512218D01*
X164130031Y-132520217D01*
X164136462Y-132528887D01*
X164142011Y-132538146D01*
X164146627Y-132547905D01*
X164150263Y-132558069D01*
X164152886Y-132568540D01*
X164154470Y-132579218D01*
X164155000Y-132590000D01*
X164155000Y-132810000D01*
X164154470Y-132820782D01*
X164152886Y-132831460D01*
X164150263Y-132841931D01*
X164146627Y-132852095D01*
X164142011Y-132861854D01*
X164136462Y-132871113D01*
X164130031Y-132879783D01*
X164122782Y-132887782D01*
X164114783Y-132895031D01*
X164106113Y-132901462D01*
X164096854Y-132907011D01*
X164087095Y-132911627D01*
X164076931Y-132915263D01*
X164066460Y-132917886D01*
X164055782Y-132919470D01*
X164045000Y-132920000D01*
X162875000Y-132920000D01*
X162864218Y-132919470D01*
X162853540Y-132917886D01*
X162843069Y-132915263D01*
X162832905Y-132911627D01*
X162823146Y-132907011D01*
X162813887Y-132901462D01*
X162805217Y-132895031D01*
X162797218Y-132887782D01*
X162789969Y-132879783D01*
X162783538Y-132871113D01*
X162777989Y-132861854D01*
X162773373Y-132852095D01*
X162769737Y-132841931D01*
X162767114Y-132831460D01*
X162765530Y-132820782D01*
X162765000Y-132810000D01*
X162765000Y-132590000D01*
X162765530Y-132579218D01*
X162767114Y-132568540D01*
X162769737Y-132558069D01*
X162773373Y-132547905D01*
X162777989Y-132538146D01*
X162783538Y-132528887D01*
X162789969Y-132520217D01*
X162797218Y-132512218D01*
X162805217Y-132504969D01*
X162813887Y-132498538D01*
X162823146Y-132492989D01*
X162832905Y-132488373D01*
X162843069Y-132484737D01*
X162853540Y-132482114D01*
X162864218Y-132480530D01*
X162875000Y-132480000D01*
X164045000Y-132480000D01*
X164055782Y-132480530D01*
X164055782Y-132480530D01*
G37*
D24*
X163460000Y-132700000D03*
D14*
G36*
X162609009Y-135252408D02*
X162657545Y-135259607D01*
X162705142Y-135271530D01*
X162751342Y-135288060D01*
X162795698Y-135309039D01*
X162837785Y-135334265D01*
X162877197Y-135363495D01*
X162913553Y-135396447D01*
X162946505Y-135432803D01*
X162975735Y-135472215D01*
X163000961Y-135514302D01*
X163021940Y-135558658D01*
X163038470Y-135604858D01*
X163050393Y-135652455D01*
X163057592Y-135700991D01*
X163060000Y-135750000D01*
X163060000Y-136750000D01*
X163057592Y-136799009D01*
X163050393Y-136847545D01*
X163038470Y-136895142D01*
X163021940Y-136941342D01*
X163000961Y-136985698D01*
X162975735Y-137027785D01*
X162946505Y-137067197D01*
X162913553Y-137103553D01*
X162877197Y-137136505D01*
X162837785Y-137165735D01*
X162795698Y-137190961D01*
X162751342Y-137211940D01*
X162705142Y-137228470D01*
X162657545Y-137240393D01*
X162609009Y-137247592D01*
X162560000Y-137250000D01*
X160360000Y-137250000D01*
X160310991Y-137247592D01*
X160262455Y-137240393D01*
X160214858Y-137228470D01*
X160168658Y-137211940D01*
X160124302Y-137190961D01*
X160082215Y-137165735D01*
X160042803Y-137136505D01*
X160006447Y-137103553D01*
X159973495Y-137067197D01*
X159944265Y-137027785D01*
X159919039Y-136985698D01*
X159898060Y-136941342D01*
X159881530Y-136895142D01*
X159869607Y-136847545D01*
X159862408Y-136799009D01*
X159860000Y-136750000D01*
X159860000Y-135750000D01*
X159862408Y-135700991D01*
X159869607Y-135652455D01*
X159881530Y-135604858D01*
X159898060Y-135558658D01*
X159919039Y-135514302D01*
X159944265Y-135472215D01*
X159973495Y-135432803D01*
X160006447Y-135396447D01*
X160042803Y-135363495D01*
X160082215Y-135334265D01*
X160124302Y-135309039D01*
X160168658Y-135288060D01*
X160214858Y-135271530D01*
X160262455Y-135259607D01*
X160310991Y-135252408D01*
X160360000Y-135250000D01*
X162560000Y-135250000D01*
X162609009Y-135252408D01*
X162609009Y-135252408D01*
G37*
D25*
X161460000Y-136250000D03*
D14*
G36*
X162609009Y-129652408D02*
X162657545Y-129659607D01*
X162705142Y-129671530D01*
X162751342Y-129688060D01*
X162795698Y-129709039D01*
X162837785Y-129734265D01*
X162877197Y-129763495D01*
X162913553Y-129796447D01*
X162946505Y-129832803D01*
X162975735Y-129872215D01*
X163000961Y-129914302D01*
X163021940Y-129958658D01*
X163038470Y-130004858D01*
X163050393Y-130052455D01*
X163057592Y-130100991D01*
X163060000Y-130150000D01*
X163060000Y-131150000D01*
X163057592Y-131199009D01*
X163050393Y-131247545D01*
X163038470Y-131295142D01*
X163021940Y-131341342D01*
X163000961Y-131385698D01*
X162975735Y-131427785D01*
X162946505Y-131467197D01*
X162913553Y-131503553D01*
X162877197Y-131536505D01*
X162837785Y-131565735D01*
X162795698Y-131590961D01*
X162751342Y-131611940D01*
X162705142Y-131628470D01*
X162657545Y-131640393D01*
X162609009Y-131647592D01*
X162560000Y-131650000D01*
X160360000Y-131650000D01*
X160310991Y-131647592D01*
X160262455Y-131640393D01*
X160214858Y-131628470D01*
X160168658Y-131611940D01*
X160124302Y-131590961D01*
X160082215Y-131565735D01*
X160042803Y-131536505D01*
X160006447Y-131503553D01*
X159973495Y-131467197D01*
X159944265Y-131427785D01*
X159919039Y-131385698D01*
X159898060Y-131341342D01*
X159881530Y-131295142D01*
X159869607Y-131247545D01*
X159862408Y-131199009D01*
X159860000Y-131150000D01*
X159860000Y-130150000D01*
X159862408Y-130100991D01*
X159869607Y-130052455D01*
X159881530Y-130004858D01*
X159898060Y-129958658D01*
X159919039Y-129914302D01*
X159944265Y-129872215D01*
X159973495Y-129832803D01*
X160006447Y-129796447D01*
X160042803Y-129763495D01*
X160082215Y-129734265D01*
X160124302Y-129709039D01*
X160168658Y-129688060D01*
X160214858Y-129671530D01*
X160262455Y-129659607D01*
X160310991Y-129652408D01*
X160360000Y-129650000D01*
X162560000Y-129650000D01*
X162609009Y-129652408D01*
X162609009Y-129652408D01*
G37*
D25*
X161460000Y-130650000D03*
%TD*%
D14*
%TO.C,P4*%
G36*
X158040584Y-95731011D02*
X158060969Y-95734035D01*
X158080960Y-95739043D01*
X158100364Y-95745985D01*
X158118993Y-95754797D01*
X158136670Y-95765391D01*
X158153223Y-95777668D01*
X158168492Y-95791508D01*
X158182332Y-95806777D01*
X158194609Y-95823330D01*
X158205203Y-95841007D01*
X158214015Y-95859636D01*
X158220957Y-95879040D01*
X158225965Y-95899031D01*
X158228989Y-95919416D01*
X158230000Y-95940000D01*
X158230000Y-96360000D01*
X158228989Y-96380584D01*
X158225965Y-96400969D01*
X158220957Y-96420960D01*
X158214015Y-96440364D01*
X158205203Y-96458993D01*
X158194609Y-96476670D01*
X158182332Y-96493223D01*
X158168492Y-96508492D01*
X158153223Y-96522332D01*
X158136670Y-96534609D01*
X158118993Y-96545203D01*
X158100364Y-96554015D01*
X158080960Y-96560957D01*
X158060969Y-96565965D01*
X158040584Y-96568989D01*
X158020000Y-96570000D01*
X155800000Y-96570000D01*
X155779416Y-96568989D01*
X155759031Y-96565965D01*
X155739040Y-96560957D01*
X155719636Y-96554015D01*
X155701007Y-96545203D01*
X155683330Y-96534609D01*
X155666777Y-96522332D01*
X155651508Y-96508492D01*
X155637668Y-96493223D01*
X155625391Y-96476670D01*
X155614797Y-96458993D01*
X155605985Y-96440364D01*
X155599043Y-96420960D01*
X155594035Y-96400969D01*
X155591011Y-96380584D01*
X155590000Y-96360000D01*
X155590000Y-95940000D01*
X155591011Y-95919416D01*
X155594035Y-95899031D01*
X155599043Y-95879040D01*
X155605985Y-95859636D01*
X155614797Y-95841007D01*
X155625391Y-95823330D01*
X155637668Y-95806777D01*
X155651508Y-95791508D01*
X155666777Y-95777668D01*
X155683330Y-95765391D01*
X155701007Y-95754797D01*
X155719636Y-95745985D01*
X155739040Y-95739043D01*
X155759031Y-95734035D01*
X155779416Y-95731011D01*
X155800000Y-95730000D01*
X158020000Y-95730000D01*
X158040584Y-95731011D01*
X158040584Y-95731011D01*
G37*
D26*
X156910000Y-96150000D03*
D14*
G36*
X158040584Y-94731011D02*
X158060969Y-94734035D01*
X158080960Y-94739043D01*
X158100364Y-94745985D01*
X158118993Y-94754797D01*
X158136670Y-94765391D01*
X158153223Y-94777668D01*
X158168492Y-94791508D01*
X158182332Y-94806777D01*
X158194609Y-94823330D01*
X158205203Y-94841007D01*
X158214015Y-94859636D01*
X158220957Y-94879040D01*
X158225965Y-94899031D01*
X158228989Y-94919416D01*
X158230000Y-94940000D01*
X158230000Y-95360000D01*
X158228989Y-95380584D01*
X158225965Y-95400969D01*
X158220957Y-95420960D01*
X158214015Y-95440364D01*
X158205203Y-95458993D01*
X158194609Y-95476670D01*
X158182332Y-95493223D01*
X158168492Y-95508492D01*
X158153223Y-95522332D01*
X158136670Y-95534609D01*
X158118993Y-95545203D01*
X158100364Y-95554015D01*
X158080960Y-95560957D01*
X158060969Y-95565965D01*
X158040584Y-95568989D01*
X158020000Y-95570000D01*
X155800000Y-95570000D01*
X155779416Y-95568989D01*
X155759031Y-95565965D01*
X155739040Y-95560957D01*
X155719636Y-95554015D01*
X155701007Y-95545203D01*
X155683330Y-95534609D01*
X155666777Y-95522332D01*
X155651508Y-95508492D01*
X155637668Y-95493223D01*
X155625391Y-95476670D01*
X155614797Y-95458993D01*
X155605985Y-95440364D01*
X155599043Y-95420960D01*
X155594035Y-95400969D01*
X155591011Y-95380584D01*
X155590000Y-95360000D01*
X155590000Y-94940000D01*
X155591011Y-94919416D01*
X155594035Y-94899031D01*
X155599043Y-94879040D01*
X155605985Y-94859636D01*
X155614797Y-94841007D01*
X155625391Y-94823330D01*
X155637668Y-94806777D01*
X155651508Y-94791508D01*
X155666777Y-94777668D01*
X155683330Y-94765391D01*
X155701007Y-94754797D01*
X155719636Y-94745985D01*
X155739040Y-94739043D01*
X155759031Y-94734035D01*
X155779416Y-94731011D01*
X155800000Y-94730000D01*
X158020000Y-94730000D01*
X158040584Y-94731011D01*
X158040584Y-94731011D01*
G37*
D26*
X156910000Y-95150000D03*
D14*
G36*
X158040584Y-93731011D02*
X158060969Y-93734035D01*
X158080960Y-93739043D01*
X158100364Y-93745985D01*
X158118993Y-93754797D01*
X158136670Y-93765391D01*
X158153223Y-93777668D01*
X158168492Y-93791508D01*
X158182332Y-93806777D01*
X158194609Y-93823330D01*
X158205203Y-93841007D01*
X158214015Y-93859636D01*
X158220957Y-93879040D01*
X158225965Y-93899031D01*
X158228989Y-93919416D01*
X158230000Y-93940000D01*
X158230000Y-94360000D01*
X158228989Y-94380584D01*
X158225965Y-94400969D01*
X158220957Y-94420960D01*
X158214015Y-94440364D01*
X158205203Y-94458993D01*
X158194609Y-94476670D01*
X158182332Y-94493223D01*
X158168492Y-94508492D01*
X158153223Y-94522332D01*
X158136670Y-94534609D01*
X158118993Y-94545203D01*
X158100364Y-94554015D01*
X158080960Y-94560957D01*
X158060969Y-94565965D01*
X158040584Y-94568989D01*
X158020000Y-94570000D01*
X155800000Y-94570000D01*
X155779416Y-94568989D01*
X155759031Y-94565965D01*
X155739040Y-94560957D01*
X155719636Y-94554015D01*
X155701007Y-94545203D01*
X155683330Y-94534609D01*
X155666777Y-94522332D01*
X155651508Y-94508492D01*
X155637668Y-94493223D01*
X155625391Y-94476670D01*
X155614797Y-94458993D01*
X155605985Y-94440364D01*
X155599043Y-94420960D01*
X155594035Y-94400969D01*
X155591011Y-94380584D01*
X155590000Y-94360000D01*
X155590000Y-93940000D01*
X155591011Y-93919416D01*
X155594035Y-93899031D01*
X155599043Y-93879040D01*
X155605985Y-93859636D01*
X155614797Y-93841007D01*
X155625391Y-93823330D01*
X155637668Y-93806777D01*
X155651508Y-93791508D01*
X155666777Y-93777668D01*
X155683330Y-93765391D01*
X155701007Y-93754797D01*
X155719636Y-93745985D01*
X155739040Y-93739043D01*
X155759031Y-93734035D01*
X155779416Y-93731011D01*
X155800000Y-93730000D01*
X158020000Y-93730000D01*
X158040584Y-93731011D01*
X158040584Y-93731011D01*
G37*
D26*
X156910000Y-94150000D03*
D14*
G36*
X158040584Y-92731011D02*
X158060969Y-92734035D01*
X158080960Y-92739043D01*
X158100364Y-92745985D01*
X158118993Y-92754797D01*
X158136670Y-92765391D01*
X158153223Y-92777668D01*
X158168492Y-92791508D01*
X158182332Y-92806777D01*
X158194609Y-92823330D01*
X158205203Y-92841007D01*
X158214015Y-92859636D01*
X158220957Y-92879040D01*
X158225965Y-92899031D01*
X158228989Y-92919416D01*
X158230000Y-92940000D01*
X158230000Y-93360000D01*
X158228989Y-93380584D01*
X158225965Y-93400969D01*
X158220957Y-93420960D01*
X158214015Y-93440364D01*
X158205203Y-93458993D01*
X158194609Y-93476670D01*
X158182332Y-93493223D01*
X158168492Y-93508492D01*
X158153223Y-93522332D01*
X158136670Y-93534609D01*
X158118993Y-93545203D01*
X158100364Y-93554015D01*
X158080960Y-93560957D01*
X158060969Y-93565965D01*
X158040584Y-93568989D01*
X158020000Y-93570000D01*
X155800000Y-93570000D01*
X155779416Y-93568989D01*
X155759031Y-93565965D01*
X155739040Y-93560957D01*
X155719636Y-93554015D01*
X155701007Y-93545203D01*
X155683330Y-93534609D01*
X155666777Y-93522332D01*
X155651508Y-93508492D01*
X155637668Y-93493223D01*
X155625391Y-93476670D01*
X155614797Y-93458993D01*
X155605985Y-93440364D01*
X155599043Y-93420960D01*
X155594035Y-93400969D01*
X155591011Y-93380584D01*
X155590000Y-93360000D01*
X155590000Y-92940000D01*
X155591011Y-92919416D01*
X155594035Y-92899031D01*
X155599043Y-92879040D01*
X155605985Y-92859636D01*
X155614797Y-92841007D01*
X155625391Y-92823330D01*
X155637668Y-92806777D01*
X155651508Y-92791508D01*
X155666777Y-92777668D01*
X155683330Y-92765391D01*
X155701007Y-92754797D01*
X155719636Y-92745985D01*
X155739040Y-92739043D01*
X155759031Y-92734035D01*
X155779416Y-92731011D01*
X155800000Y-92730000D01*
X158020000Y-92730000D01*
X158040584Y-92731011D01*
X158040584Y-92731011D01*
G37*
D26*
X156910000Y-93150000D03*
D14*
G36*
X155396261Y-97553010D02*
X155456931Y-97562009D01*
X155516428Y-97576912D01*
X155574177Y-97597575D01*
X155629623Y-97623799D01*
X155682231Y-97655331D01*
X155731496Y-97691868D01*
X155776942Y-97733058D01*
X155818132Y-97778504D01*
X155854669Y-97827769D01*
X155886201Y-97880377D01*
X155912425Y-97935823D01*
X155933088Y-97993572D01*
X155947991Y-98053069D01*
X155956990Y-98113739D01*
X155960000Y-98175000D01*
X155960000Y-99425000D01*
X155956990Y-99486261D01*
X155947991Y-99546931D01*
X155933088Y-99606428D01*
X155912425Y-99664177D01*
X155886201Y-99719623D01*
X155854669Y-99772231D01*
X155818132Y-99821496D01*
X155776942Y-99866942D01*
X155731496Y-99908132D01*
X155682231Y-99944669D01*
X155629623Y-99976201D01*
X155574177Y-100002425D01*
X155516428Y-100023088D01*
X155456931Y-100037991D01*
X155396261Y-100046990D01*
X155335000Y-100050000D01*
X153185000Y-100050000D01*
X153123739Y-100046990D01*
X153063069Y-100037991D01*
X153003572Y-100023088D01*
X152945823Y-100002425D01*
X152890377Y-99976201D01*
X152837769Y-99944669D01*
X152788504Y-99908132D01*
X152743058Y-99866942D01*
X152701868Y-99821496D01*
X152665331Y-99772231D01*
X152633799Y-99719623D01*
X152607575Y-99664177D01*
X152586912Y-99606428D01*
X152572009Y-99546931D01*
X152563010Y-99486261D01*
X152560000Y-99425000D01*
X152560000Y-98175000D01*
X152563010Y-98113739D01*
X152572009Y-98053069D01*
X152586912Y-97993572D01*
X152607575Y-97935823D01*
X152633799Y-97880377D01*
X152665331Y-97827769D01*
X152701868Y-97778504D01*
X152743058Y-97733058D01*
X152788504Y-97691868D01*
X152837769Y-97655331D01*
X152890377Y-97623799D01*
X152945823Y-97597575D01*
X153003572Y-97576912D01*
X153063069Y-97562009D01*
X153123739Y-97553010D01*
X153185000Y-97550000D01*
X155335000Y-97550000D01*
X155396261Y-97553010D01*
X155396261Y-97553010D01*
G37*
D27*
X154260000Y-98800000D03*
D14*
G36*
X155396261Y-89253010D02*
X155456931Y-89262009D01*
X155516428Y-89276912D01*
X155574177Y-89297575D01*
X155629623Y-89323799D01*
X155682231Y-89355331D01*
X155731496Y-89391868D01*
X155776942Y-89433058D01*
X155818132Y-89478504D01*
X155854669Y-89527769D01*
X155886201Y-89580377D01*
X155912425Y-89635823D01*
X155933088Y-89693572D01*
X155947991Y-89753069D01*
X155956990Y-89813739D01*
X155960000Y-89875000D01*
X155960000Y-91125000D01*
X155956990Y-91186261D01*
X155947991Y-91246931D01*
X155933088Y-91306428D01*
X155912425Y-91364177D01*
X155886201Y-91419623D01*
X155854669Y-91472231D01*
X155818132Y-91521496D01*
X155776942Y-91566942D01*
X155731496Y-91608132D01*
X155682231Y-91644669D01*
X155629623Y-91676201D01*
X155574177Y-91702425D01*
X155516428Y-91723088D01*
X155456931Y-91737991D01*
X155396261Y-91746990D01*
X155335000Y-91750000D01*
X153185000Y-91750000D01*
X153123739Y-91746990D01*
X153063069Y-91737991D01*
X153003572Y-91723088D01*
X152945823Y-91702425D01*
X152890377Y-91676201D01*
X152837769Y-91644669D01*
X152788504Y-91608132D01*
X152743058Y-91566942D01*
X152701868Y-91521496D01*
X152665331Y-91472231D01*
X152633799Y-91419623D01*
X152607575Y-91364177D01*
X152586912Y-91306428D01*
X152572009Y-91246931D01*
X152563010Y-91186261D01*
X152560000Y-91125000D01*
X152560000Y-89875000D01*
X152563010Y-89813739D01*
X152572009Y-89753069D01*
X152586912Y-89693572D01*
X152607575Y-89635823D01*
X152633799Y-89580377D01*
X152665331Y-89527769D01*
X152701868Y-89478504D01*
X152743058Y-89433058D01*
X152788504Y-89391868D01*
X152837769Y-89355331D01*
X152890377Y-89323799D01*
X152945823Y-89297575D01*
X153003572Y-89276912D01*
X153063069Y-89262009D01*
X153123739Y-89253010D01*
X153185000Y-89250000D01*
X155335000Y-89250000D01*
X155396261Y-89253010D01*
X155396261Y-89253010D01*
G37*
D27*
X154260000Y-90500000D03*
%TD*%
D28*
%TO.C,U2*%
X134636114Y-83967840D03*
X134636114Y-83317840D03*
X134636114Y-82667840D03*
X134636114Y-82017840D03*
X134636114Y-81367840D03*
X134636114Y-80717840D03*
X134636114Y-80067840D03*
X134636114Y-79417840D03*
X128036114Y-79417840D03*
X128036114Y-80067840D03*
X128036114Y-80717840D03*
X128036114Y-81367840D03*
X128036114Y-82017840D03*
X128036114Y-82667840D03*
X128036114Y-83317840D03*
X128036114Y-83967840D03*
%TD*%
D19*
%TO.C,R1*%
X166242500Y-132190000D03*
X168147500Y-132190000D03*
%TD*%
D13*
%TO.C,R6*%
X137086114Y-82880340D03*
X137086114Y-84785340D03*
%TD*%
%TO.C,R7*%
X138250000Y-79407500D03*
X138250000Y-81312500D03*
%TD*%
%TO.C,R8*%
X140240000Y-81312500D03*
X140240000Y-79407500D03*
%TD*%
%TO.C,R9*%
X142220000Y-79407500D03*
X142220000Y-81312500D03*
%TD*%
%TO.C,R10*%
X144260000Y-81312500D03*
X144260000Y-79407500D03*
%TD*%
M02*
